G04 #@! TF.GenerationSoftware,KiCad,Pcbnew,(5.1.8-0-10_14)*
G04 #@! TF.CreationDate,2020-12-18T18:08:01+11:00*
G04 #@! TF.ProjectId,WS2812B_Controller_Board,57533238-3132-4425-9f43-6f6e74726f6c,rev?*
G04 #@! TF.SameCoordinates,Original*
G04 #@! TF.FileFunction,Legend,Bot*
G04 #@! TF.FilePolarity,Positive*
%FSLAX46Y46*%
G04 Gerber Fmt 4.6, Leading zero omitted, Abs format (unit mm)*
G04 Created by KiCad (PCBNEW (5.1.8-0-10_14)) date 2020-12-18 18:08:01*
%MOMM*%
%LPD*%
G01*
G04 APERTURE LIST*
%ADD10C,0.200000*%
G04 APERTURE END LIST*
D10*
X172518952Y-104592380D02*
X172518952Y-103592380D01*
X172138000Y-103592380D01*
X172042761Y-103640000D01*
X171995142Y-103687619D01*
X171947523Y-103782857D01*
X171947523Y-103925714D01*
X171995142Y-104020952D01*
X172042761Y-104068571D01*
X172138000Y-104116190D01*
X172518952Y-104116190D01*
X171090380Y-103925714D02*
X171090380Y-104592380D01*
X171518952Y-103925714D02*
X171518952Y-104449523D01*
X171471333Y-104544761D01*
X171376095Y-104592380D01*
X171233238Y-104592380D01*
X171138000Y-104544761D01*
X171090380Y-104497142D01*
X170614190Y-104592380D02*
X170614190Y-103925714D01*
X170614190Y-104020952D02*
X170566571Y-103973333D01*
X170471333Y-103925714D01*
X170328476Y-103925714D01*
X170233238Y-103973333D01*
X170185619Y-104068571D01*
X170185619Y-104592380D01*
X170185619Y-104068571D02*
X170138000Y-103973333D01*
X170042761Y-103925714D01*
X169899904Y-103925714D01*
X169804666Y-103973333D01*
X169757047Y-104068571D01*
X169757047Y-104592380D01*
X169280857Y-104592380D02*
X169280857Y-103592380D01*
X169280857Y-103973333D02*
X169185619Y-103925714D01*
X168995142Y-103925714D01*
X168899904Y-103973333D01*
X168852285Y-104020952D01*
X168804666Y-104116190D01*
X168804666Y-104401904D01*
X168852285Y-104497142D01*
X168899904Y-104544761D01*
X168995142Y-104592380D01*
X169185619Y-104592380D01*
X169280857Y-104544761D01*
X167947523Y-104592380D02*
X167947523Y-104068571D01*
X167995142Y-103973333D01*
X168090380Y-103925714D01*
X168280857Y-103925714D01*
X168376095Y-103973333D01*
X167947523Y-104544761D02*
X168042761Y-104592380D01*
X168280857Y-104592380D01*
X168376095Y-104544761D01*
X168423714Y-104449523D01*
X168423714Y-104354285D01*
X168376095Y-104259047D01*
X168280857Y-104211428D01*
X168042761Y-104211428D01*
X167947523Y-104163809D01*
X166709428Y-104592380D02*
X166709428Y-103592380D01*
X166328476Y-103592380D01*
X166233238Y-103640000D01*
X166185619Y-103687619D01*
X166138000Y-103782857D01*
X166138000Y-103925714D01*
X166185619Y-104020952D01*
X166233238Y-104068571D01*
X166328476Y-104116190D01*
X166709428Y-104116190D01*
X165280857Y-104592380D02*
X165280857Y-104068571D01*
X165328476Y-103973333D01*
X165423714Y-103925714D01*
X165614190Y-103925714D01*
X165709428Y-103973333D01*
X165280857Y-104544761D02*
X165376095Y-104592380D01*
X165614190Y-104592380D01*
X165709428Y-104544761D01*
X165757047Y-104449523D01*
X165757047Y-104354285D01*
X165709428Y-104259047D01*
X165614190Y-104211428D01*
X165376095Y-104211428D01*
X165280857Y-104163809D01*
X164804666Y-104592380D02*
X164804666Y-103925714D01*
X164804666Y-104116190D02*
X164757047Y-104020952D01*
X164709428Y-103973333D01*
X164614190Y-103925714D01*
X164518952Y-103925714D01*
X164328476Y-103925714D02*
X163947523Y-103925714D01*
X164185619Y-103592380D02*
X164185619Y-104449523D01*
X164138000Y-104544761D01*
X164042761Y-104592380D01*
X163947523Y-104592380D01*
X163709428Y-103925714D02*
X163471333Y-104592380D01*
X163233238Y-103925714D02*
X163471333Y-104592380D01*
X163566571Y-104830476D01*
X163614190Y-104878095D01*
X163709428Y-104925714D01*
X161518952Y-104497142D02*
X161566571Y-104544761D01*
X161709428Y-104592380D01*
X161804666Y-104592380D01*
X161947523Y-104544761D01*
X162042761Y-104449523D01*
X162090380Y-104354285D01*
X162138000Y-104163809D01*
X162138000Y-104020952D01*
X162090380Y-103830476D01*
X162042761Y-103735238D01*
X161947523Y-103640000D01*
X161804666Y-103592380D01*
X161709428Y-103592380D01*
X161566571Y-103640000D01*
X161518952Y-103687619D01*
X160947523Y-104592380D02*
X161042761Y-104544761D01*
X161090380Y-104497142D01*
X161138000Y-104401904D01*
X161138000Y-104116190D01*
X161090380Y-104020952D01*
X161042761Y-103973333D01*
X160947523Y-103925714D01*
X160804666Y-103925714D01*
X160709428Y-103973333D01*
X160661809Y-104020952D01*
X160614190Y-104116190D01*
X160614190Y-104401904D01*
X160661809Y-104497142D01*
X160709428Y-104544761D01*
X160804666Y-104592380D01*
X160947523Y-104592380D01*
X160185619Y-103925714D02*
X160185619Y-104592380D01*
X160185619Y-104020952D02*
X160138000Y-103973333D01*
X160042761Y-103925714D01*
X159899904Y-103925714D01*
X159804666Y-103973333D01*
X159757047Y-104068571D01*
X159757047Y-104592380D01*
X159423714Y-103925714D02*
X159042761Y-103925714D01*
X159280857Y-103592380D02*
X159280857Y-104449523D01*
X159233238Y-104544761D01*
X159138000Y-104592380D01*
X159042761Y-104592380D01*
X158709428Y-104592380D02*
X158709428Y-103925714D01*
X158709428Y-104116190D02*
X158661809Y-104020952D01*
X158614190Y-103973333D01*
X158518952Y-103925714D01*
X158423714Y-103925714D01*
X157947523Y-104592380D02*
X158042761Y-104544761D01*
X158090380Y-104497142D01*
X158138000Y-104401904D01*
X158138000Y-104116190D01*
X158090380Y-104020952D01*
X158042761Y-103973333D01*
X157947523Y-103925714D01*
X157804666Y-103925714D01*
X157709428Y-103973333D01*
X157661809Y-104020952D01*
X157614190Y-104116190D01*
X157614190Y-104401904D01*
X157661809Y-104497142D01*
X157709428Y-104544761D01*
X157804666Y-104592380D01*
X157947523Y-104592380D01*
X157042761Y-104592380D02*
X157138000Y-104544761D01*
X157185619Y-104449523D01*
X157185619Y-103592380D01*
X156518952Y-104592380D02*
X156614190Y-104544761D01*
X156661809Y-104449523D01*
X156661809Y-103592380D01*
X155757047Y-104544761D02*
X155852285Y-104592380D01*
X156042761Y-104592380D01*
X156138000Y-104544761D01*
X156185619Y-104449523D01*
X156185619Y-104068571D01*
X156138000Y-103973333D01*
X156042761Y-103925714D01*
X155852285Y-103925714D01*
X155757047Y-103973333D01*
X155709428Y-104068571D01*
X155709428Y-104163809D01*
X156185619Y-104259047D01*
X155280857Y-104592380D02*
X155280857Y-103925714D01*
X155280857Y-104116190D02*
X155233238Y-104020952D01*
X155185619Y-103973333D01*
X155090380Y-103925714D01*
X154995142Y-103925714D01*
X153995142Y-103925714D02*
X153757047Y-104592380D01*
X153518952Y-103925714D01*
X152614190Y-104592380D02*
X153185619Y-104592380D01*
X152899904Y-104592380D02*
X152899904Y-103592380D01*
X152995142Y-103735238D01*
X153090380Y-103830476D01*
X153185619Y-103878095D01*
X151423714Y-104211428D02*
X150661809Y-104211428D01*
X149423714Y-104592380D02*
X149423714Y-103592380D01*
X149185619Y-103592380D01*
X149042761Y-103640000D01*
X148947523Y-103735238D01*
X148899904Y-103830476D01*
X148852285Y-104020952D01*
X148852285Y-104163809D01*
X148899904Y-104354285D01*
X148947523Y-104449523D01*
X149042761Y-104544761D01*
X149185619Y-104592380D01*
X149423714Y-104592380D01*
X148042761Y-104544761D02*
X148138000Y-104592380D01*
X148328476Y-104592380D01*
X148423714Y-104544761D01*
X148471333Y-104449523D01*
X148471333Y-104068571D01*
X148423714Y-103973333D01*
X148328476Y-103925714D01*
X148138000Y-103925714D01*
X148042761Y-103973333D01*
X147995142Y-104068571D01*
X147995142Y-104163809D01*
X148471333Y-104259047D01*
X147614190Y-104544761D02*
X147518952Y-104592380D01*
X147328476Y-104592380D01*
X147233238Y-104544761D01*
X147185619Y-104449523D01*
X147185619Y-104401904D01*
X147233238Y-104306666D01*
X147328476Y-104259047D01*
X147471333Y-104259047D01*
X147566571Y-104211428D01*
X147614190Y-104116190D01*
X147614190Y-104068571D01*
X147566571Y-103973333D01*
X147471333Y-103925714D01*
X147328476Y-103925714D01*
X147233238Y-103973333D01*
X146757047Y-104592380D02*
X146757047Y-103925714D01*
X146757047Y-103592380D02*
X146804666Y-103640000D01*
X146757047Y-103687619D01*
X146709428Y-103640000D01*
X146757047Y-103592380D01*
X146757047Y-103687619D01*
X145852285Y-103925714D02*
X145852285Y-104735238D01*
X145899904Y-104830476D01*
X145947523Y-104878095D01*
X146042761Y-104925714D01*
X146185619Y-104925714D01*
X146280857Y-104878095D01*
X145852285Y-104544761D02*
X145947523Y-104592380D01*
X146138000Y-104592380D01*
X146233238Y-104544761D01*
X146280857Y-104497142D01*
X146328476Y-104401904D01*
X146328476Y-104116190D01*
X146280857Y-104020952D01*
X146233238Y-103973333D01*
X146138000Y-103925714D01*
X145947523Y-103925714D01*
X145852285Y-103973333D01*
X145376095Y-103925714D02*
X145376095Y-104592380D01*
X145376095Y-104020952D02*
X145328476Y-103973333D01*
X145233238Y-103925714D01*
X145090380Y-103925714D01*
X144995142Y-103973333D01*
X144947523Y-104068571D01*
X144947523Y-104592380D01*
X144090380Y-104544761D02*
X144185619Y-104592380D01*
X144376095Y-104592380D01*
X144471333Y-104544761D01*
X144518952Y-104449523D01*
X144518952Y-104068571D01*
X144471333Y-103973333D01*
X144376095Y-103925714D01*
X144185619Y-103925714D01*
X144090380Y-103973333D01*
X144042761Y-104068571D01*
X144042761Y-104163809D01*
X144518952Y-104259047D01*
X143185619Y-104592380D02*
X143185619Y-103592380D01*
X143185619Y-104544761D02*
X143280857Y-104592380D01*
X143471333Y-104592380D01*
X143566571Y-104544761D01*
X143614190Y-104497142D01*
X143661809Y-104401904D01*
X143661809Y-104116190D01*
X143614190Y-104020952D01*
X143566571Y-103973333D01*
X143471333Y-103925714D01*
X143280857Y-103925714D01*
X143185619Y-103973333D01*
X141947523Y-104592380D02*
X141947523Y-103592380D01*
X141947523Y-103973333D02*
X141852285Y-103925714D01*
X141661809Y-103925714D01*
X141566571Y-103973333D01*
X141518952Y-104020952D01*
X141471333Y-104116190D01*
X141471333Y-104401904D01*
X141518952Y-104497142D01*
X141566571Y-104544761D01*
X141661809Y-104592380D01*
X141852285Y-104592380D01*
X141947523Y-104544761D01*
X141138000Y-103925714D02*
X140899904Y-104592380D01*
X140661809Y-103925714D02*
X140899904Y-104592380D01*
X140995142Y-104830476D01*
X141042761Y-104878095D01*
X141138000Y-104925714D01*
X139566571Y-104306666D02*
X139090380Y-104306666D01*
X139661809Y-104592380D02*
X139328476Y-103592380D01*
X138995142Y-104592380D01*
X138233238Y-104592380D02*
X138233238Y-104068571D01*
X138280857Y-103973333D01*
X138376095Y-103925714D01*
X138566571Y-103925714D01*
X138661809Y-103973333D01*
X138233238Y-104544761D02*
X138328476Y-104592380D01*
X138566571Y-104592380D01*
X138661809Y-104544761D01*
X138709428Y-104449523D01*
X138709428Y-104354285D01*
X138661809Y-104259047D01*
X138566571Y-104211428D01*
X138328476Y-104211428D01*
X138233238Y-104163809D01*
X137757047Y-104592380D02*
X137757047Y-103925714D01*
X137757047Y-104116190D02*
X137709428Y-104020952D01*
X137661809Y-103973333D01*
X137566571Y-103925714D01*
X137471333Y-103925714D01*
X136995142Y-104592380D02*
X137090380Y-104544761D01*
X137138000Y-104497142D01*
X137185619Y-104401904D01*
X137185619Y-104116190D01*
X137138000Y-104020952D01*
X137090380Y-103973333D01*
X136995142Y-103925714D01*
X136852285Y-103925714D01*
X136757047Y-103973333D01*
X136709428Y-104020952D01*
X136661809Y-104116190D01*
X136661809Y-104401904D01*
X136709428Y-104497142D01*
X136757047Y-104544761D01*
X136852285Y-104592380D01*
X136995142Y-104592380D01*
X136233238Y-103925714D02*
X136233238Y-104592380D01*
X136233238Y-104020952D02*
X136185619Y-103973333D01*
X136090380Y-103925714D01*
X135947523Y-103925714D01*
X135852285Y-103973333D01*
X135804666Y-104068571D01*
X135804666Y-104592380D01*
X134090380Y-104592380D02*
X134566571Y-104592380D01*
X134566571Y-103592380D01*
X133328476Y-103925714D02*
X133328476Y-104592380D01*
X133757047Y-103925714D02*
X133757047Y-104449523D01*
X133709428Y-104544761D01*
X133614190Y-104592380D01*
X133471333Y-104592380D01*
X133376095Y-104544761D01*
X133328476Y-104497142D01*
X132423714Y-104544761D02*
X132518952Y-104592380D01*
X132709428Y-104592380D01*
X132804666Y-104544761D01*
X132852285Y-104497142D01*
X132899904Y-104401904D01*
X132899904Y-104116190D01*
X132852285Y-104020952D01*
X132804666Y-103973333D01*
X132709428Y-103925714D01*
X132518952Y-103925714D01*
X132423714Y-103973333D01*
X131566571Y-104592380D02*
X131566571Y-104068571D01*
X131614190Y-103973333D01*
X131709428Y-103925714D01*
X131899904Y-103925714D01*
X131995142Y-103973333D01*
X131566571Y-104544761D02*
X131661809Y-104592380D01*
X131899904Y-104592380D01*
X131995142Y-104544761D01*
X132042761Y-104449523D01*
X132042761Y-104354285D01*
X131995142Y-104259047D01*
X131899904Y-104211428D01*
X131661809Y-104211428D01*
X131566571Y-104163809D01*
X131138000Y-104544761D02*
X131042761Y-104592380D01*
X130852285Y-104592380D01*
X130757047Y-104544761D01*
X130709428Y-104449523D01*
X130709428Y-104401904D01*
X130757047Y-104306666D01*
X130852285Y-104259047D01*
X130995142Y-104259047D01*
X131090380Y-104211428D01*
X131138000Y-104116190D01*
X131138000Y-104068571D01*
X131090380Y-103973333D01*
X130995142Y-103925714D01*
X130852285Y-103925714D01*
X130757047Y-103973333D01*
M02*
