G04 #@! TF.GenerationSoftware,KiCad,Pcbnew,(5.1.8-0-10_14)*
G04 #@! TF.CreationDate,2020-12-18T18:08:01+11:00*
G04 #@! TF.ProjectId,WS2812B_Controller_Board,57533238-3132-4425-9f43-6f6e74726f6c,rev?*
G04 #@! TF.SameCoordinates,Original*
G04 #@! TF.FileFunction,Copper,L1,Top*
G04 #@! TF.FilePolarity,Positive*
%FSLAX46Y46*%
G04 Gerber Fmt 4.6, Leading zero omitted, Abs format (unit mm)*
G04 Created by KiCad (PCBNEW (5.1.8-0-10_14)) date 2020-12-18 18:08:01*
%MOMM*%
%LPD*%
G01*
G04 APERTURE LIST*
G04 #@! TA.AperFunction,ComponentPad*
%ADD10C,1.600000*%
G04 #@! TD*
G04 #@! TA.AperFunction,ComponentPad*
%ADD11O,1.600000X1.600000*%
G04 #@! TD*
G04 #@! TA.AperFunction,ComponentPad*
%ADD12R,1.600000X1.600000*%
G04 #@! TD*
G04 #@! TA.AperFunction,ComponentPad*
%ADD13C,4.000000*%
G04 #@! TD*
G04 #@! TA.AperFunction,ComponentPad*
%ADD14R,1.905000X1.905000*%
G04 #@! TD*
G04 #@! TA.AperFunction,ComponentPad*
%ADD15C,1.905000*%
G04 #@! TD*
G04 #@! TA.AperFunction,ComponentPad*
%ADD16C,2.250000*%
G04 #@! TD*
G04 #@! TA.AperFunction,ComponentPad*
%ADD17R,2.499360X2.499360*%
G04 #@! TD*
G04 #@! TA.AperFunction,ComponentPad*
%ADD18C,2.499360*%
G04 #@! TD*
G04 #@! TA.AperFunction,SMDPad,CuDef*
%ADD19R,2.500000X1.430000*%
G04 #@! TD*
G04 #@! TA.AperFunction,ComponentPad*
%ADD20O,1.700000X1.350000*%
G04 #@! TD*
G04 #@! TA.AperFunction,ComponentPad*
%ADD21O,1.500000X1.100000*%
G04 #@! TD*
G04 #@! TA.AperFunction,SMDPad,CuDef*
%ADD22R,1.650000X0.400000*%
G04 #@! TD*
G04 #@! TA.AperFunction,SMDPad,CuDef*
%ADD23R,1.500000X2.000000*%
G04 #@! TD*
G04 #@! TA.AperFunction,SMDPad,CuDef*
%ADD24R,0.700000X1.825000*%
G04 #@! TD*
G04 #@! TA.AperFunction,SMDPad,CuDef*
%ADD25R,2.000000X1.350000*%
G04 #@! TD*
G04 #@! TA.AperFunction,ViaPad*
%ADD26C,1.200000*%
G04 #@! TD*
G04 #@! TA.AperFunction,Conductor*
%ADD27C,2.000000*%
G04 #@! TD*
G04 #@! TA.AperFunction,Conductor*
%ADD28C,1.000000*%
G04 #@! TD*
G04 #@! TA.AperFunction,Conductor*
%ADD29C,0.254000*%
G04 #@! TD*
G04 #@! TA.AperFunction,Conductor*
%ADD30C,0.100000*%
G04 #@! TD*
G04 APERTURE END LIST*
D10*
X171450000Y-90170000D03*
D11*
X171450000Y-100330000D03*
X148082000Y-100330000D03*
D10*
X148082000Y-90170000D03*
D12*
X141224000Y-99060000D03*
D11*
X133604000Y-91440000D03*
X141224000Y-96520000D03*
X133604000Y-93980000D03*
X141224000Y-93980000D03*
X133604000Y-96520000D03*
X141224000Y-91440000D03*
X133604000Y-99060000D03*
D13*
X123952000Y-99750000D03*
X123952000Y-95250000D03*
X123952000Y-90750000D03*
D11*
X144272000Y-100330000D03*
D10*
X144272000Y-90170000D03*
D14*
X161036000Y-100330000D03*
D15*
X158496000Y-100330000D03*
D16*
X157266000Y-91250000D03*
G04 #@! TA.AperFunction,ComponentPad*
G36*
G01*
X155204688Y-93547350D02*
X155204683Y-93547345D01*
G75*
G02*
X155118655Y-91958683I751317J837345D01*
G01*
X156428657Y-90498683D01*
G75*
G02*
X158017319Y-90412655I837345J-751317D01*
G01*
X158017319Y-90412655D01*
G75*
G02*
X158103347Y-92001317I-751317J-837345D01*
G01*
X156793345Y-93461317D01*
G75*
G02*
X155204683Y-93547345I-837345J751317D01*
G01*
G37*
G04 #@! TD.AperFunction*
X162306000Y-90170000D03*
G04 #@! TA.AperFunction,ComponentPad*
G36*
G01*
X162189483Y-91872395D02*
X162188597Y-91872334D01*
G75*
G02*
X161143666Y-90672597I77403J1122334D01*
G01*
X161183666Y-90092597D01*
G75*
G02*
X162383403Y-89047666I1122334J-77403D01*
G01*
X162383403Y-89047666D01*
G75*
G02*
X163428334Y-90247403I-77403J-1122334D01*
G01*
X163388334Y-90827403D01*
G75*
G02*
X162188597Y-91872334I-1122334J77403D01*
G01*
G37*
G04 #@! TD.AperFunction*
D17*
X134239000Y-85090000D03*
D18*
X137414000Y-85090000D03*
X140589000Y-85090000D03*
D19*
X112661000Y-96185000D03*
X112661000Y-94265000D03*
D20*
X112931000Y-97955000D03*
X112931000Y-92495000D03*
D21*
X115931000Y-97645000D03*
X115931000Y-92805000D03*
D22*
X115811000Y-96525000D03*
X115811000Y-95875000D03*
X115811000Y-95225000D03*
X115811000Y-94575000D03*
X115811000Y-93925000D03*
D23*
X115931000Y-98125000D03*
X115911000Y-92375000D03*
D24*
X114611000Y-98225000D03*
X114611000Y-92275000D03*
D25*
X113861000Y-92495000D03*
X113861000Y-97975000D03*
D10*
X129540000Y-84106000D03*
X129540000Y-86106000D03*
X131064000Y-92790000D03*
X131064000Y-97790000D03*
D26*
X118110000Y-95758000D03*
X118110000Y-101346000D03*
X118110000Y-98552000D03*
D27*
X131516002Y-85090000D02*
X130500001Y-86106001D01*
X134239000Y-85090000D02*
X131516002Y-85090000D01*
X130500001Y-86106001D02*
X129540001Y-86106001D01*
X129540001Y-86106001D02*
X128270000Y-87376002D01*
X128270000Y-87376002D02*
X128270000Y-93472000D01*
D28*
X135636000Y-100330000D02*
X134112000Y-100330000D01*
X139192000Y-91186000D02*
X139192000Y-96774000D01*
X141007999Y-89370001D02*
X139192000Y-91186000D01*
X143472001Y-89370001D02*
X141007999Y-89370001D01*
X139192000Y-96774000D02*
X135636000Y-100330000D01*
X144272000Y-90170000D02*
X143472001Y-89370001D01*
X133350000Y-103124000D02*
X133350000Y-101346000D01*
X143764000Y-103886000D02*
X134112000Y-103886000D01*
X146050000Y-99060000D02*
X146050000Y-101600000D01*
X146050000Y-101600000D02*
X143764000Y-103886000D01*
X134112000Y-103886000D02*
X133350000Y-103124000D01*
X153860000Y-91250000D02*
X146050000Y-99060000D01*
X157266000Y-91250000D02*
X153860000Y-91250000D01*
X137414000Y-92710000D02*
X137414000Y-85090000D01*
X133604000Y-96520000D02*
X137414000Y-92710000D01*
X148082000Y-100330000D02*
X158496000Y-100330000D01*
X171450000Y-90170000D02*
X162306000Y-90170000D01*
X161181001Y-89045001D02*
X162306000Y-90170000D01*
X160020000Y-87884000D02*
X161181001Y-89045001D01*
X141224000Y-93980000D02*
X144272000Y-93980000D01*
X146050000Y-89154000D02*
X147320000Y-87884000D01*
X144272000Y-93980000D02*
X146050000Y-92202000D01*
X147320000Y-87884000D02*
X160020000Y-87884000D01*
X146050000Y-92202000D02*
X146050000Y-89154000D01*
X141224000Y-99060000D02*
X143002000Y-99060000D01*
X143002000Y-99060000D02*
X144272000Y-100330000D01*
X148082000Y-93726000D02*
X148082000Y-90170000D01*
X145288000Y-96520000D02*
X148082000Y-93726000D01*
X141224000Y-96520000D02*
X145288000Y-96520000D01*
D29*
X126365000Y-92583000D02*
X120904000Y-92583000D01*
X120879224Y-92585440D01*
X120855399Y-92592667D01*
X120833443Y-92604403D01*
X120814197Y-92620197D01*
X119327394Y-94107000D01*
X116824894Y-94107000D01*
X116818550Y-94101794D01*
X116761743Y-94071430D01*
X116700103Y-94052732D01*
X116636000Y-94046418D01*
X114986000Y-94046418D01*
X114935000Y-94051441D01*
X114935000Y-93612548D01*
X114978450Y-93648206D01*
X115035257Y-93678570D01*
X115096897Y-93697268D01*
X115161000Y-93703582D01*
X116661000Y-93703582D01*
X116725103Y-93697268D01*
X116786743Y-93678570D01*
X116843550Y-93648206D01*
X116893343Y-93607343D01*
X116934206Y-93557550D01*
X116935911Y-93554360D01*
X116945597Y-93542557D01*
X116957333Y-93520601D01*
X116961765Y-93505992D01*
X116964570Y-93500743D01*
X116983268Y-93439103D01*
X116989582Y-93375000D01*
X116989582Y-92995805D01*
X116995310Y-92976922D01*
X117012243Y-92805000D01*
X116995310Y-92633078D01*
X116989582Y-92614195D01*
X116989582Y-92492237D01*
X119464959Y-90264398D01*
X119469803Y-90259803D01*
X120956606Y-88773000D01*
X126365000Y-88773000D01*
X126365000Y-92583000D01*
G04 #@! TA.AperFunction,Conductor*
D30*
G36*
X126365000Y-92583000D02*
G01*
X120904000Y-92583000D01*
X120879224Y-92585440D01*
X120855399Y-92592667D01*
X120833443Y-92604403D01*
X120814197Y-92620197D01*
X119327394Y-94107000D01*
X116824894Y-94107000D01*
X116818550Y-94101794D01*
X116761743Y-94071430D01*
X116700103Y-94052732D01*
X116636000Y-94046418D01*
X114986000Y-94046418D01*
X114935000Y-94051441D01*
X114935000Y-93612548D01*
X114978450Y-93648206D01*
X115035257Y-93678570D01*
X115096897Y-93697268D01*
X115161000Y-93703582D01*
X116661000Y-93703582D01*
X116725103Y-93697268D01*
X116786743Y-93678570D01*
X116843550Y-93648206D01*
X116893343Y-93607343D01*
X116934206Y-93557550D01*
X116935911Y-93554360D01*
X116945597Y-93542557D01*
X116957333Y-93520601D01*
X116961765Y-93505992D01*
X116964570Y-93500743D01*
X116983268Y-93439103D01*
X116989582Y-93375000D01*
X116989582Y-92995805D01*
X116995310Y-92976922D01*
X117012243Y-92805000D01*
X116995310Y-92633078D01*
X116989582Y-92614195D01*
X116989582Y-92492237D01*
X119464959Y-90264398D01*
X119469803Y-90259803D01*
X120956606Y-88773000D01*
X126365000Y-88773000D01*
X126365000Y-92583000D01*
G37*
G04 #@! TD.AperFunction*
D29*
X129159000Y-94488000D02*
X129161440Y-94512776D01*
X129168667Y-94536601D01*
X129180403Y-94558557D01*
X129196197Y-94577803D01*
X129215443Y-94593597D01*
X129237399Y-94605333D01*
X129261224Y-94612560D01*
X129286000Y-94615000D01*
X131953000Y-94615000D01*
X131953000Y-98044000D01*
X131955440Y-98068776D01*
X131962667Y-98092601D01*
X131974403Y-98114557D01*
X131990197Y-98133803D01*
X132009443Y-98149597D01*
X132031399Y-98161333D01*
X132055224Y-98168560D01*
X132080000Y-98171000D01*
X134493000Y-98171000D01*
X134493000Y-102235000D01*
X121031000Y-102235000D01*
X121031000Y-99520811D01*
X121625000Y-99520811D01*
X121625000Y-99979189D01*
X121714426Y-100428761D01*
X121889840Y-100852248D01*
X122144501Y-101233376D01*
X122468624Y-101557499D01*
X122849752Y-101812160D01*
X123273239Y-101987574D01*
X123722811Y-102077000D01*
X124181189Y-102077000D01*
X124630761Y-101987574D01*
X125054248Y-101812160D01*
X125435376Y-101557499D01*
X125759499Y-101233376D01*
X126014160Y-100852248D01*
X126189574Y-100428761D01*
X126279000Y-99979189D01*
X126279000Y-99520811D01*
X126189574Y-99071239D01*
X126014160Y-98647752D01*
X125759499Y-98266624D01*
X125435376Y-97942501D01*
X125054248Y-97687840D01*
X124630761Y-97512426D01*
X124181189Y-97423000D01*
X123722811Y-97423000D01*
X123273239Y-97512426D01*
X122849752Y-97687840D01*
X122468624Y-97942501D01*
X122144501Y-98266624D01*
X121889840Y-98647752D01*
X121714426Y-99071239D01*
X121625000Y-99520811D01*
X121031000Y-99520811D01*
X121031000Y-93345000D01*
X129159000Y-93345000D01*
X129159000Y-94488000D01*
G04 #@! TA.AperFunction,Conductor*
D30*
G36*
X129159000Y-94488000D02*
G01*
X129161440Y-94512776D01*
X129168667Y-94536601D01*
X129180403Y-94558557D01*
X129196197Y-94577803D01*
X129215443Y-94593597D01*
X129237399Y-94605333D01*
X129261224Y-94612560D01*
X129286000Y-94615000D01*
X131953000Y-94615000D01*
X131953000Y-98044000D01*
X131955440Y-98068776D01*
X131962667Y-98092601D01*
X131974403Y-98114557D01*
X131990197Y-98133803D01*
X132009443Y-98149597D01*
X132031399Y-98161333D01*
X132055224Y-98168560D01*
X132080000Y-98171000D01*
X134493000Y-98171000D01*
X134493000Y-102235000D01*
X121031000Y-102235000D01*
X121031000Y-99520811D01*
X121625000Y-99520811D01*
X121625000Y-99979189D01*
X121714426Y-100428761D01*
X121889840Y-100852248D01*
X122144501Y-101233376D01*
X122468624Y-101557499D01*
X122849752Y-101812160D01*
X123273239Y-101987574D01*
X123722811Y-102077000D01*
X124181189Y-102077000D01*
X124630761Y-101987574D01*
X125054248Y-101812160D01*
X125435376Y-101557499D01*
X125759499Y-101233376D01*
X126014160Y-100852248D01*
X126189574Y-100428761D01*
X126279000Y-99979189D01*
X126279000Y-99520811D01*
X126189574Y-99071239D01*
X126014160Y-98647752D01*
X125759499Y-98266624D01*
X125435376Y-97942501D01*
X125054248Y-97687840D01*
X124630761Y-97512426D01*
X124181189Y-97423000D01*
X123722811Y-97423000D01*
X123273239Y-97512426D01*
X122849752Y-97687840D01*
X122468624Y-97942501D01*
X122144501Y-98266624D01*
X121889840Y-98647752D01*
X121714426Y-99071239D01*
X121625000Y-99520811D01*
X121031000Y-99520811D01*
X121031000Y-93345000D01*
X129159000Y-93345000D01*
X129159000Y-94488000D01*
G37*
G04 #@! TD.AperFunction*
D29*
X119253000Y-102235000D02*
X116967000Y-102235000D01*
X116967000Y-99283614D01*
X116984570Y-99250743D01*
X117003268Y-99189103D01*
X117009582Y-99125000D01*
X117009582Y-97672017D01*
X117012243Y-97645000D01*
X117009582Y-97617983D01*
X117009582Y-97125000D01*
X117003268Y-97060897D01*
X116984570Y-96999257D01*
X116954206Y-96942450D01*
X116913343Y-96892657D01*
X116863550Y-96851794D01*
X116806743Y-96821430D01*
X116745103Y-96802732D01*
X116681000Y-96796418D01*
X116354770Y-96796418D01*
X116302922Y-96780690D01*
X116174079Y-96768000D01*
X115687921Y-96768000D01*
X115559078Y-96780690D01*
X115507230Y-96796418D01*
X115181000Y-96796418D01*
X115116897Y-96802732D01*
X115055257Y-96821430D01*
X114998450Y-96851794D01*
X114948657Y-96892657D01*
X114941810Y-96901000D01*
X114935000Y-96901000D01*
X114935000Y-96398559D01*
X114986000Y-96403582D01*
X116636000Y-96403582D01*
X116700103Y-96397268D01*
X116714173Y-96393000D01*
X116840000Y-96393000D01*
X116864776Y-96390560D01*
X116888601Y-96383333D01*
X116910557Y-96371597D01*
X116929803Y-96355803D01*
X116945597Y-96336557D01*
X116957333Y-96314601D01*
X116964560Y-96290776D01*
X116967000Y-96266000D01*
X116967000Y-94869000D01*
X119253000Y-94869000D01*
X119253000Y-102235000D01*
G04 #@! TA.AperFunction,Conductor*
D30*
G36*
X119253000Y-102235000D02*
G01*
X116967000Y-102235000D01*
X116967000Y-99283614D01*
X116984570Y-99250743D01*
X117003268Y-99189103D01*
X117009582Y-99125000D01*
X117009582Y-97672017D01*
X117012243Y-97645000D01*
X117009582Y-97617983D01*
X117009582Y-97125000D01*
X117003268Y-97060897D01*
X116984570Y-96999257D01*
X116954206Y-96942450D01*
X116913343Y-96892657D01*
X116863550Y-96851794D01*
X116806743Y-96821430D01*
X116745103Y-96802732D01*
X116681000Y-96796418D01*
X116354770Y-96796418D01*
X116302922Y-96780690D01*
X116174079Y-96768000D01*
X115687921Y-96768000D01*
X115559078Y-96780690D01*
X115507230Y-96796418D01*
X115181000Y-96796418D01*
X115116897Y-96802732D01*
X115055257Y-96821430D01*
X114998450Y-96851794D01*
X114948657Y-96892657D01*
X114941810Y-96901000D01*
X114935000Y-96901000D01*
X114935000Y-96398559D01*
X114986000Y-96403582D01*
X116636000Y-96403582D01*
X116700103Y-96397268D01*
X116714173Y-96393000D01*
X116840000Y-96393000D01*
X116864776Y-96390560D01*
X116888601Y-96383333D01*
X116910557Y-96371597D01*
X116929803Y-96355803D01*
X116945597Y-96336557D01*
X116957333Y-96314601D01*
X116964560Y-96290776D01*
X116967000Y-96266000D01*
X116967000Y-94869000D01*
X119253000Y-94869000D01*
X119253000Y-102235000D01*
G37*
G04 #@! TD.AperFunction*
M02*
