G04 #@! TF.GenerationSoftware,KiCad,Pcbnew,(5.1.8-0-10_14)*
G04 #@! TF.CreationDate,2020-12-18T18:08:01+11:00*
G04 #@! TF.ProjectId,WS2812B_Controller_Board,57533238-3132-4425-9f43-6f6e74726f6c,rev?*
G04 #@! TF.SameCoordinates,Original*
G04 #@! TF.FileFunction,Copper,L2,Bot*
G04 #@! TF.FilePolarity,Positive*
%FSLAX46Y46*%
G04 Gerber Fmt 4.6, Leading zero omitted, Abs format (unit mm)*
G04 Created by KiCad (PCBNEW (5.1.8-0-10_14)) date 2020-12-18 18:08:01*
%MOMM*%
%LPD*%
G01*
G04 APERTURE LIST*
G04 #@! TA.AperFunction,ComponentPad*
%ADD10C,1.600000*%
G04 #@! TD*
G04 #@! TA.AperFunction,ComponentPad*
%ADD11O,1.600000X1.600000*%
G04 #@! TD*
G04 #@! TA.AperFunction,ComponentPad*
%ADD12R,1.600000X1.600000*%
G04 #@! TD*
G04 #@! TA.AperFunction,ComponentPad*
%ADD13C,4.000000*%
G04 #@! TD*
G04 #@! TA.AperFunction,ComponentPad*
%ADD14R,1.905000X1.905000*%
G04 #@! TD*
G04 #@! TA.AperFunction,ComponentPad*
%ADD15C,1.905000*%
G04 #@! TD*
G04 #@! TA.AperFunction,ComponentPad*
%ADD16C,2.250000*%
G04 #@! TD*
G04 #@! TA.AperFunction,ComponentPad*
%ADD17R,2.499360X2.499360*%
G04 #@! TD*
G04 #@! TA.AperFunction,ComponentPad*
%ADD18C,2.499360*%
G04 #@! TD*
G04 #@! TA.AperFunction,ComponentPad*
%ADD19O,1.700000X1.350000*%
G04 #@! TD*
G04 #@! TA.AperFunction,ComponentPad*
%ADD20O,1.500000X1.100000*%
G04 #@! TD*
G04 #@! TA.AperFunction,ViaPad*
%ADD21C,1.200000*%
G04 #@! TD*
G04 #@! TA.AperFunction,Conductor*
%ADD22C,0.254000*%
G04 #@! TD*
G04 #@! TA.AperFunction,Conductor*
%ADD23C,0.100000*%
G04 #@! TD*
G04 APERTURE END LIST*
D10*
X171450000Y-90170000D03*
D11*
X171450000Y-100330000D03*
X148082000Y-100330000D03*
D10*
X148082000Y-90170000D03*
D12*
X141224000Y-99060000D03*
D11*
X133604000Y-91440000D03*
X141224000Y-96520000D03*
X133604000Y-93980000D03*
X141224000Y-93980000D03*
X133604000Y-96520000D03*
X141224000Y-91440000D03*
X133604000Y-99060000D03*
D13*
X123952000Y-99750000D03*
X123952000Y-95250000D03*
X123952000Y-90750000D03*
D11*
X144272000Y-100330000D03*
D10*
X144272000Y-90170000D03*
D14*
X161036000Y-100330000D03*
D15*
X158496000Y-100330000D03*
D16*
X157266000Y-91250000D03*
G04 #@! TA.AperFunction,ComponentPad*
G36*
G01*
X155204688Y-93547350D02*
X155204683Y-93547345D01*
G75*
G02*
X155118655Y-91958683I751317J837345D01*
G01*
X156428657Y-90498683D01*
G75*
G02*
X158017319Y-90412655I837345J-751317D01*
G01*
X158017319Y-90412655D01*
G75*
G02*
X158103347Y-92001317I-751317J-837345D01*
G01*
X156793345Y-93461317D01*
G75*
G02*
X155204683Y-93547345I-837345J751317D01*
G01*
G37*
G04 #@! TD.AperFunction*
X162306000Y-90170000D03*
G04 #@! TA.AperFunction,ComponentPad*
G36*
G01*
X162189483Y-91872395D02*
X162188597Y-91872334D01*
G75*
G02*
X161143666Y-90672597I77403J1122334D01*
G01*
X161183666Y-90092597D01*
G75*
G02*
X162383403Y-89047666I1122334J-77403D01*
G01*
X162383403Y-89047666D01*
G75*
G02*
X163428334Y-90247403I-77403J-1122334D01*
G01*
X163388334Y-90827403D01*
G75*
G02*
X162188597Y-91872334I-1122334J77403D01*
G01*
G37*
G04 #@! TD.AperFunction*
D17*
X134239000Y-85090000D03*
D18*
X137414000Y-85090000D03*
X140589000Y-85090000D03*
D19*
X112931000Y-97955000D03*
X112931000Y-92495000D03*
D20*
X115931000Y-97645000D03*
X115931000Y-92805000D03*
D10*
X129540000Y-84106000D03*
X129540000Y-86106000D03*
X131064000Y-92790000D03*
X131064000Y-97790000D03*
D21*
X118110000Y-95758000D03*
X118110000Y-101346000D03*
X118110000Y-98552000D03*
D22*
X132980213Y-77924414D02*
X132788414Y-78116213D01*
X132637718Y-78341746D01*
X132533917Y-78592344D01*
X132481000Y-78858377D01*
X132481000Y-79129623D01*
X132533917Y-79395656D01*
X132637718Y-79646254D01*
X132788414Y-79871787D01*
X132980213Y-80063586D01*
X133205746Y-80214282D01*
X133456344Y-80318083D01*
X133722377Y-80371000D01*
X133993623Y-80371000D01*
X134259656Y-80318083D01*
X134510254Y-80214282D01*
X134735787Y-80063586D01*
X134927586Y-79871787D01*
X135078282Y-79646254D01*
X135182083Y-79395656D01*
X135235000Y-79129623D01*
X135235000Y-78858377D01*
X135182083Y-78592344D01*
X135078282Y-78341746D01*
X134927586Y-78116213D01*
X134735787Y-77924414D01*
X134625915Y-77851000D01*
X136646085Y-77851000D01*
X136536213Y-77924414D01*
X136344414Y-78116213D01*
X136193718Y-78341746D01*
X136089917Y-78592344D01*
X136037000Y-78858377D01*
X136037000Y-79129623D01*
X136089917Y-79395656D01*
X136193718Y-79646254D01*
X136344414Y-79871787D01*
X136536213Y-80063586D01*
X136761746Y-80214282D01*
X137012344Y-80318083D01*
X137278377Y-80371000D01*
X137549623Y-80371000D01*
X137815656Y-80318083D01*
X138066254Y-80214282D01*
X138291787Y-80063586D01*
X138483586Y-79871787D01*
X138634282Y-79646254D01*
X138738083Y-79395656D01*
X138791000Y-79129623D01*
X138791000Y-78858377D01*
X138738083Y-78592344D01*
X138634282Y-78341746D01*
X138483586Y-78116213D01*
X138291787Y-77924414D01*
X138181915Y-77851000D01*
X140202085Y-77851000D01*
X140092213Y-77924414D01*
X139900414Y-78116213D01*
X139749718Y-78341746D01*
X139645917Y-78592344D01*
X139593000Y-78858377D01*
X139593000Y-79129623D01*
X139645917Y-79395656D01*
X139749718Y-79646254D01*
X139900414Y-79871787D01*
X140092213Y-80063586D01*
X140317746Y-80214282D01*
X140568344Y-80318083D01*
X140834377Y-80371000D01*
X141105623Y-80371000D01*
X141371656Y-80318083D01*
X141622254Y-80214282D01*
X141847787Y-80063586D01*
X142039586Y-79871787D01*
X142190282Y-79646254D01*
X142294083Y-79395656D01*
X142347000Y-79129623D01*
X142347000Y-78858377D01*
X142294083Y-78592344D01*
X142190282Y-78341746D01*
X142039586Y-78116213D01*
X141847787Y-77924414D01*
X141737915Y-77851000D01*
X145161000Y-77851000D01*
X145161000Y-85344000D01*
X145163440Y-85368776D01*
X145170667Y-85392601D01*
X145182403Y-85414557D01*
X145198197Y-85433803D01*
X145217443Y-85449597D01*
X145239399Y-85461333D01*
X145263224Y-85468560D01*
X145288000Y-85471000D01*
X173101000Y-85471000D01*
X173101000Y-105029000D01*
X112903000Y-105029000D01*
X112903000Y-98957000D01*
X113155223Y-98957000D01*
X113302426Y-98942502D01*
X113491304Y-98885206D01*
X113665375Y-98792164D01*
X113817949Y-98666949D01*
X113943164Y-98514375D01*
X114036206Y-98340304D01*
X114093502Y-98151426D01*
X114112848Y-97955000D01*
X114093502Y-97758574D01*
X114059050Y-97645000D01*
X114849757Y-97645000D01*
X114866690Y-97816922D01*
X114916838Y-97982237D01*
X114998273Y-98134592D01*
X115107867Y-98268133D01*
X115241408Y-98377727D01*
X115393763Y-98459162D01*
X115559078Y-98509310D01*
X115687921Y-98522000D01*
X116174079Y-98522000D01*
X116302922Y-98509310D01*
X116468237Y-98459162D01*
X116620592Y-98377727D01*
X116754133Y-98268133D01*
X116863727Y-98134592D01*
X116945162Y-97982237D01*
X116995310Y-97816922D01*
X117012243Y-97645000D01*
X116995310Y-97473078D01*
X116945162Y-97307763D01*
X116863727Y-97155408D01*
X116754133Y-97021867D01*
X116620592Y-96912273D01*
X116468237Y-96830838D01*
X116302922Y-96780690D01*
X116174079Y-96768000D01*
X115687921Y-96768000D01*
X115559078Y-96780690D01*
X115393763Y-96830838D01*
X115241408Y-96912273D01*
X115107867Y-97021867D01*
X114998273Y-97155408D01*
X114916838Y-97307763D01*
X114866690Y-97473078D01*
X114849757Y-97645000D01*
X114059050Y-97645000D01*
X114036206Y-97569696D01*
X113943164Y-97395625D01*
X113817949Y-97243051D01*
X113665375Y-97117836D01*
X113491304Y-97024794D01*
X113302426Y-96967498D01*
X113155223Y-96953000D01*
X112903000Y-96953000D01*
X112903000Y-93497000D01*
X113155223Y-93497000D01*
X113302426Y-93482502D01*
X113491304Y-93425206D01*
X113665375Y-93332164D01*
X113817949Y-93206949D01*
X113943164Y-93054375D01*
X114036206Y-92880304D01*
X114059049Y-92805000D01*
X114849757Y-92805000D01*
X114866690Y-92976922D01*
X114916838Y-93142237D01*
X114998273Y-93294592D01*
X115107867Y-93428133D01*
X115241408Y-93537727D01*
X115393763Y-93619162D01*
X115559078Y-93669310D01*
X115687921Y-93682000D01*
X116174079Y-93682000D01*
X116302922Y-93669310D01*
X116468237Y-93619162D01*
X116620592Y-93537727D01*
X116754133Y-93428133D01*
X116863727Y-93294592D01*
X116945162Y-93142237D01*
X116995310Y-92976922D01*
X117012243Y-92805000D01*
X116995310Y-92633078D01*
X116945162Y-92467763D01*
X116863727Y-92315408D01*
X116754133Y-92181867D01*
X116620592Y-92072273D01*
X116468237Y-91990838D01*
X116302922Y-91940690D01*
X116174079Y-91928000D01*
X115687921Y-91928000D01*
X115559078Y-91940690D01*
X115393763Y-91990838D01*
X115241408Y-92072273D01*
X115107867Y-92181867D01*
X114998273Y-92315408D01*
X114916838Y-92467763D01*
X114866690Y-92633078D01*
X114849757Y-92805000D01*
X114059049Y-92805000D01*
X114093502Y-92691426D01*
X114112848Y-92495000D01*
X114093502Y-92298574D01*
X114036206Y-92109696D01*
X113943164Y-91935625D01*
X113817949Y-91783051D01*
X113665375Y-91657836D01*
X113491304Y-91564794D01*
X113302426Y-91507498D01*
X113155223Y-91493000D01*
X112903000Y-91493000D01*
X112903000Y-90520811D01*
X121625000Y-90520811D01*
X121625000Y-90979189D01*
X121714426Y-91428761D01*
X121889840Y-91852248D01*
X122144501Y-92233376D01*
X122468624Y-92557499D01*
X122849752Y-92812160D01*
X123273239Y-92987574D01*
X123335708Y-93000000D01*
X123273239Y-93012426D01*
X122849752Y-93187840D01*
X122468624Y-93442501D01*
X122144501Y-93766624D01*
X121889840Y-94147752D01*
X121714426Y-94571239D01*
X121625000Y-95020811D01*
X121625000Y-95479189D01*
X121714426Y-95928761D01*
X121889840Y-96352248D01*
X122144501Y-96733376D01*
X122468624Y-97057499D01*
X122849752Y-97312160D01*
X123273239Y-97487574D01*
X123335708Y-97500000D01*
X123273239Y-97512426D01*
X122849752Y-97687840D01*
X122468624Y-97942501D01*
X122144501Y-98266624D01*
X121889840Y-98647752D01*
X121714426Y-99071239D01*
X121625000Y-99520811D01*
X121625000Y-99979189D01*
X121714426Y-100428761D01*
X121889840Y-100852248D01*
X122144501Y-101233376D01*
X122468624Y-101557499D01*
X122849752Y-101812160D01*
X123273239Y-101987574D01*
X123722811Y-102077000D01*
X124181189Y-102077000D01*
X124630761Y-101987574D01*
X125054248Y-101812160D01*
X125435376Y-101557499D01*
X125759499Y-101233376D01*
X126014160Y-100852248D01*
X126189574Y-100428761D01*
X126231298Y-100219000D01*
X143145000Y-100219000D01*
X143145000Y-100441000D01*
X143188310Y-100658734D01*
X143273266Y-100863835D01*
X143396602Y-101048421D01*
X143553579Y-101205398D01*
X143738165Y-101328734D01*
X143943266Y-101413690D01*
X144161000Y-101457000D01*
X144383000Y-101457000D01*
X144600734Y-101413690D01*
X144805835Y-101328734D01*
X144990421Y-101205398D01*
X145147398Y-101048421D01*
X145270734Y-100863835D01*
X145355690Y-100658734D01*
X145399000Y-100441000D01*
X145399000Y-100219000D01*
X146955000Y-100219000D01*
X146955000Y-100441000D01*
X146998310Y-100658734D01*
X147083266Y-100863835D01*
X147206602Y-101048421D01*
X147363579Y-101205398D01*
X147548165Y-101328734D01*
X147753266Y-101413690D01*
X147971000Y-101457000D01*
X148193000Y-101457000D01*
X148410734Y-101413690D01*
X148615835Y-101328734D01*
X148800421Y-101205398D01*
X148957398Y-101048421D01*
X149080734Y-100863835D01*
X149165690Y-100658734D01*
X149209000Y-100441000D01*
X149209000Y-100219000D01*
X149206013Y-100203980D01*
X157216500Y-100203980D01*
X157216500Y-100456020D01*
X157265670Y-100703216D01*
X157362122Y-100936071D01*
X157502147Y-101145634D01*
X157680366Y-101323853D01*
X157889929Y-101463878D01*
X158122784Y-101560330D01*
X158369980Y-101609500D01*
X158622020Y-101609500D01*
X158869216Y-101560330D01*
X159102071Y-101463878D01*
X159311634Y-101323853D01*
X159489853Y-101145634D01*
X159629878Y-100936071D01*
X159726330Y-100703216D01*
X159775500Y-100456020D01*
X159775500Y-100203980D01*
X159726330Y-99956784D01*
X159629878Y-99723929D01*
X159489853Y-99514366D01*
X159311634Y-99336147D01*
X159102071Y-99196122D01*
X158869216Y-99099670D01*
X158622020Y-99050500D01*
X158369980Y-99050500D01*
X158122784Y-99099670D01*
X157889929Y-99196122D01*
X157680366Y-99336147D01*
X157502147Y-99514366D01*
X157362122Y-99723929D01*
X157265670Y-99956784D01*
X157216500Y-100203980D01*
X149206013Y-100203980D01*
X149165690Y-100001266D01*
X149080734Y-99796165D01*
X148957398Y-99611579D01*
X148800421Y-99454602D01*
X148615835Y-99331266D01*
X148410734Y-99246310D01*
X148193000Y-99203000D01*
X147971000Y-99203000D01*
X147753266Y-99246310D01*
X147548165Y-99331266D01*
X147363579Y-99454602D01*
X147206602Y-99611579D01*
X147083266Y-99796165D01*
X146998310Y-100001266D01*
X146955000Y-100219000D01*
X145399000Y-100219000D01*
X145355690Y-100001266D01*
X145270734Y-99796165D01*
X145147398Y-99611579D01*
X144990421Y-99454602D01*
X144805835Y-99331266D01*
X144600734Y-99246310D01*
X144383000Y-99203000D01*
X144161000Y-99203000D01*
X143943266Y-99246310D01*
X143738165Y-99331266D01*
X143553579Y-99454602D01*
X143396602Y-99611579D01*
X143273266Y-99796165D01*
X143188310Y-100001266D01*
X143145000Y-100219000D01*
X126231298Y-100219000D01*
X126279000Y-99979189D01*
X126279000Y-99520811D01*
X126189574Y-99071239D01*
X126138941Y-98949000D01*
X132477000Y-98949000D01*
X132477000Y-99171000D01*
X132520310Y-99388734D01*
X132605266Y-99593835D01*
X132728602Y-99778421D01*
X132885579Y-99935398D01*
X133070165Y-100058734D01*
X133275266Y-100143690D01*
X133493000Y-100187000D01*
X133715000Y-100187000D01*
X133932734Y-100143690D01*
X134137835Y-100058734D01*
X134322421Y-99935398D01*
X134479398Y-99778421D01*
X134602734Y-99593835D01*
X134687690Y-99388734D01*
X134731000Y-99171000D01*
X134731000Y-98949000D01*
X134687690Y-98731266D01*
X134602734Y-98526165D01*
X134479398Y-98341579D01*
X134397819Y-98260000D01*
X140095418Y-98260000D01*
X140095418Y-99860000D01*
X140101732Y-99924103D01*
X140120430Y-99985743D01*
X140150794Y-100042550D01*
X140191657Y-100092343D01*
X140241450Y-100133206D01*
X140298257Y-100163570D01*
X140359897Y-100182268D01*
X140424000Y-100188582D01*
X142024000Y-100188582D01*
X142088103Y-100182268D01*
X142149743Y-100163570D01*
X142206550Y-100133206D01*
X142256343Y-100092343D01*
X142297206Y-100042550D01*
X142327570Y-99985743D01*
X142346268Y-99924103D01*
X142352582Y-99860000D01*
X142352582Y-98260000D01*
X142346268Y-98195897D01*
X142327570Y-98134257D01*
X142297206Y-98077450D01*
X142256343Y-98027657D01*
X142206550Y-97986794D01*
X142149743Y-97956430D01*
X142088103Y-97937732D01*
X142024000Y-97931418D01*
X140424000Y-97931418D01*
X140359897Y-97937732D01*
X140298257Y-97956430D01*
X140241450Y-97986794D01*
X140191657Y-98027657D01*
X140150794Y-98077450D01*
X140120430Y-98134257D01*
X140101732Y-98195897D01*
X140095418Y-98260000D01*
X134397819Y-98260000D01*
X134322421Y-98184602D01*
X134137835Y-98061266D01*
X133932734Y-97976310D01*
X133715000Y-97933000D01*
X133493000Y-97933000D01*
X133275266Y-97976310D01*
X133070165Y-98061266D01*
X132885579Y-98184602D01*
X132728602Y-98341579D01*
X132605266Y-98526165D01*
X132520310Y-98731266D01*
X132477000Y-98949000D01*
X126138941Y-98949000D01*
X126014160Y-98647752D01*
X125759499Y-98266624D01*
X125435376Y-97942501D01*
X125054248Y-97687840D01*
X125032907Y-97679000D01*
X129937000Y-97679000D01*
X129937000Y-97901000D01*
X129980310Y-98118734D01*
X130065266Y-98323835D01*
X130188602Y-98508421D01*
X130345579Y-98665398D01*
X130530165Y-98788734D01*
X130735266Y-98873690D01*
X130953000Y-98917000D01*
X131175000Y-98917000D01*
X131392734Y-98873690D01*
X131597835Y-98788734D01*
X131782421Y-98665398D01*
X131939398Y-98508421D01*
X132062734Y-98323835D01*
X132147690Y-98118734D01*
X132191000Y-97901000D01*
X132191000Y-97679000D01*
X132147690Y-97461266D01*
X132062734Y-97256165D01*
X131939398Y-97071579D01*
X131782421Y-96914602D01*
X131597835Y-96791266D01*
X131392734Y-96706310D01*
X131175000Y-96663000D01*
X130953000Y-96663000D01*
X130735266Y-96706310D01*
X130530165Y-96791266D01*
X130345579Y-96914602D01*
X130188602Y-97071579D01*
X130065266Y-97256165D01*
X129980310Y-97461266D01*
X129937000Y-97679000D01*
X125032907Y-97679000D01*
X124630761Y-97512426D01*
X124568292Y-97500000D01*
X124630761Y-97487574D01*
X125054248Y-97312160D01*
X125435376Y-97057499D01*
X125759499Y-96733376D01*
X125976239Y-96409000D01*
X132477000Y-96409000D01*
X132477000Y-96631000D01*
X132520310Y-96848734D01*
X132605266Y-97053835D01*
X132728602Y-97238421D01*
X132885579Y-97395398D01*
X133070165Y-97518734D01*
X133275266Y-97603690D01*
X133493000Y-97647000D01*
X133715000Y-97647000D01*
X133932734Y-97603690D01*
X134137835Y-97518734D01*
X134322421Y-97395398D01*
X134479398Y-97238421D01*
X134602734Y-97053835D01*
X134687690Y-96848734D01*
X134731000Y-96631000D01*
X134731000Y-96409000D01*
X140097000Y-96409000D01*
X140097000Y-96631000D01*
X140140310Y-96848734D01*
X140225266Y-97053835D01*
X140348602Y-97238421D01*
X140505579Y-97395398D01*
X140690165Y-97518734D01*
X140895266Y-97603690D01*
X141113000Y-97647000D01*
X141335000Y-97647000D01*
X141552734Y-97603690D01*
X141757835Y-97518734D01*
X141942421Y-97395398D01*
X142099398Y-97238421D01*
X142222734Y-97053835D01*
X142307690Y-96848734D01*
X142351000Y-96631000D01*
X142351000Y-96409000D01*
X142307690Y-96191266D01*
X142222734Y-95986165D01*
X142099398Y-95801579D01*
X141942421Y-95644602D01*
X141757835Y-95521266D01*
X141552734Y-95436310D01*
X141335000Y-95393000D01*
X141113000Y-95393000D01*
X140895266Y-95436310D01*
X140690165Y-95521266D01*
X140505579Y-95644602D01*
X140348602Y-95801579D01*
X140225266Y-95986165D01*
X140140310Y-96191266D01*
X140097000Y-96409000D01*
X134731000Y-96409000D01*
X134687690Y-96191266D01*
X134602734Y-95986165D01*
X134479398Y-95801579D01*
X134322421Y-95644602D01*
X134137835Y-95521266D01*
X133932734Y-95436310D01*
X133715000Y-95393000D01*
X133493000Y-95393000D01*
X133275266Y-95436310D01*
X133070165Y-95521266D01*
X132885579Y-95644602D01*
X132728602Y-95801579D01*
X132605266Y-95986165D01*
X132520310Y-96191266D01*
X132477000Y-96409000D01*
X125976239Y-96409000D01*
X126014160Y-96352248D01*
X126189574Y-95928761D01*
X126279000Y-95479189D01*
X126279000Y-95131613D01*
X153484000Y-95131613D01*
X153484000Y-95368387D01*
X153530192Y-95600610D01*
X153620801Y-95819361D01*
X153752346Y-96016230D01*
X153919770Y-96183654D01*
X154116639Y-96315199D01*
X154335390Y-96405808D01*
X154567613Y-96452000D01*
X154804387Y-96452000D01*
X155036610Y-96405808D01*
X155255361Y-96315199D01*
X155452230Y-96183654D01*
X155619654Y-96016230D01*
X155751199Y-95819361D01*
X155841808Y-95600610D01*
X155888000Y-95368387D01*
X155888000Y-95131613D01*
X155866080Y-95021411D01*
X157445100Y-95021411D01*
X157445100Y-95478589D01*
X157534291Y-95926982D01*
X157709245Y-96349358D01*
X157963239Y-96729488D01*
X158286512Y-97052761D01*
X158666642Y-97306755D01*
X159089018Y-97481709D01*
X159537411Y-97570900D01*
X159994589Y-97570900D01*
X160442982Y-97481709D01*
X160865358Y-97306755D01*
X161245488Y-97052761D01*
X161568761Y-96729488D01*
X161822755Y-96349358D01*
X161997709Y-95926982D01*
X162086900Y-95478589D01*
X162086900Y-95131613D01*
X163644000Y-95131613D01*
X163644000Y-95368387D01*
X163690192Y-95600610D01*
X163780801Y-95819361D01*
X163912346Y-96016230D01*
X164079770Y-96183654D01*
X164276639Y-96315199D01*
X164495390Y-96405808D01*
X164727613Y-96452000D01*
X164964387Y-96452000D01*
X165196610Y-96405808D01*
X165415361Y-96315199D01*
X165612230Y-96183654D01*
X165779654Y-96016230D01*
X165911199Y-95819361D01*
X166001808Y-95600610D01*
X166048000Y-95368387D01*
X166048000Y-95131613D01*
X166001808Y-94899390D01*
X165911199Y-94680639D01*
X165779654Y-94483770D01*
X165612230Y-94316346D01*
X165415361Y-94184801D01*
X165196610Y-94094192D01*
X164964387Y-94048000D01*
X164727613Y-94048000D01*
X164495390Y-94094192D01*
X164276639Y-94184801D01*
X164079770Y-94316346D01*
X163912346Y-94483770D01*
X163780801Y-94680639D01*
X163690192Y-94899390D01*
X163644000Y-95131613D01*
X162086900Y-95131613D01*
X162086900Y-95021411D01*
X161997709Y-94573018D01*
X161822755Y-94150642D01*
X161568761Y-93770512D01*
X161245488Y-93447239D01*
X160865358Y-93193245D01*
X160442982Y-93018291D01*
X159994589Y-92929100D01*
X159537411Y-92929100D01*
X159089018Y-93018291D01*
X158666642Y-93193245D01*
X158286512Y-93447239D01*
X157963239Y-93770512D01*
X157709245Y-94150642D01*
X157534291Y-94573018D01*
X157445100Y-95021411D01*
X155866080Y-95021411D01*
X155841808Y-94899390D01*
X155751199Y-94680639D01*
X155619654Y-94483770D01*
X155452230Y-94316346D01*
X155255361Y-94184801D01*
X155036610Y-94094192D01*
X154804387Y-94048000D01*
X154567613Y-94048000D01*
X154335390Y-94094192D01*
X154116639Y-94184801D01*
X153919770Y-94316346D01*
X153752346Y-94483770D01*
X153620801Y-94680639D01*
X153530192Y-94899390D01*
X153484000Y-95131613D01*
X126279000Y-95131613D01*
X126279000Y-95020811D01*
X126189574Y-94571239D01*
X126014160Y-94147752D01*
X125827905Y-93869000D01*
X132477000Y-93869000D01*
X132477000Y-94091000D01*
X132520310Y-94308734D01*
X132605266Y-94513835D01*
X132728602Y-94698421D01*
X132885579Y-94855398D01*
X133070165Y-94978734D01*
X133275266Y-95063690D01*
X133493000Y-95107000D01*
X133715000Y-95107000D01*
X133932734Y-95063690D01*
X134137835Y-94978734D01*
X134322421Y-94855398D01*
X134479398Y-94698421D01*
X134602734Y-94513835D01*
X134687690Y-94308734D01*
X134731000Y-94091000D01*
X134731000Y-93869000D01*
X140097000Y-93869000D01*
X140097000Y-94091000D01*
X140140310Y-94308734D01*
X140225266Y-94513835D01*
X140348602Y-94698421D01*
X140505579Y-94855398D01*
X140690165Y-94978734D01*
X140895266Y-95063690D01*
X141113000Y-95107000D01*
X141335000Y-95107000D01*
X141552734Y-95063690D01*
X141757835Y-94978734D01*
X141942421Y-94855398D01*
X142099398Y-94698421D01*
X142222734Y-94513835D01*
X142307690Y-94308734D01*
X142351000Y-94091000D01*
X142351000Y-93869000D01*
X142307690Y-93651266D01*
X142222734Y-93446165D01*
X142099398Y-93261579D01*
X141942421Y-93104602D01*
X141757835Y-92981266D01*
X141552734Y-92896310D01*
X141335000Y-92853000D01*
X141113000Y-92853000D01*
X140895266Y-92896310D01*
X140690165Y-92981266D01*
X140505579Y-93104602D01*
X140348602Y-93261579D01*
X140225266Y-93446165D01*
X140140310Y-93651266D01*
X140097000Y-93869000D01*
X134731000Y-93869000D01*
X134687690Y-93651266D01*
X134602734Y-93446165D01*
X134479398Y-93261579D01*
X134322421Y-93104602D01*
X134137835Y-92981266D01*
X133932734Y-92896310D01*
X133715000Y-92853000D01*
X133493000Y-92853000D01*
X133275266Y-92896310D01*
X133070165Y-92981266D01*
X132885579Y-93104602D01*
X132728602Y-93261579D01*
X132605266Y-93446165D01*
X132520310Y-93651266D01*
X132477000Y-93869000D01*
X125827905Y-93869000D01*
X125759499Y-93766624D01*
X125435376Y-93442501D01*
X125054248Y-93187840D01*
X124630761Y-93012426D01*
X124568292Y-93000000D01*
X124630761Y-92987574D01*
X125054248Y-92812160D01*
X125089072Y-92788891D01*
X154499111Y-92788891D01*
X154542495Y-93071601D01*
X154640200Y-93340414D01*
X154788470Y-93585000D01*
X154981608Y-93795962D01*
X155212192Y-93965190D01*
X155471360Y-94086181D01*
X155749151Y-94154287D01*
X156034891Y-94166889D01*
X156317601Y-94123505D01*
X156586414Y-94025800D01*
X156831000Y-93877530D01*
X156989099Y-93732788D01*
X158320518Y-92248920D01*
X158393842Y-92175596D01*
X158455502Y-92083316D01*
X158521192Y-91993809D01*
X158534835Y-91964586D01*
X158552746Y-91937780D01*
X158595220Y-91835240D01*
X158642184Y-91734641D01*
X158649863Y-91703319D01*
X158662201Y-91673533D01*
X158683852Y-91564687D01*
X158710290Y-91456850D01*
X158711711Y-91424627D01*
X158718000Y-91393010D01*
X158718000Y-91282018D01*
X158722891Y-91171109D01*
X158718000Y-91139237D01*
X158718000Y-91106990D01*
X158696344Y-90998118D01*
X158679507Y-90888399D01*
X158668492Y-90858093D01*
X158662201Y-90826467D01*
X158619721Y-90723912D01*
X158618756Y-90721256D01*
X160812534Y-90721256D01*
X160818818Y-90935512D01*
X160882816Y-91214279D01*
X160999970Y-91475203D01*
X161165777Y-91708259D01*
X161373864Y-91904489D01*
X161616236Y-92056353D01*
X161883578Y-92158015D01*
X162165617Y-92205567D01*
X162451512Y-92197182D01*
X162730279Y-92133184D01*
X162991203Y-92016030D01*
X163224259Y-91850223D01*
X163420489Y-91642136D01*
X163572353Y-91399764D01*
X163674015Y-91132422D01*
X163709651Y-90921056D01*
X163748181Y-90362373D01*
X163758000Y-90313010D01*
X163758000Y-90220002D01*
X163759466Y-90198745D01*
X163758000Y-90148753D01*
X163758000Y-90059000D01*
X170323000Y-90059000D01*
X170323000Y-90281000D01*
X170366310Y-90498734D01*
X170451266Y-90703835D01*
X170574602Y-90888421D01*
X170731579Y-91045398D01*
X170916165Y-91168734D01*
X171121266Y-91253690D01*
X171339000Y-91297000D01*
X171561000Y-91297000D01*
X171778734Y-91253690D01*
X171983835Y-91168734D01*
X172168421Y-91045398D01*
X172325398Y-90888421D01*
X172448734Y-90703835D01*
X172533690Y-90498734D01*
X172577000Y-90281000D01*
X172577000Y-90059000D01*
X172533690Y-89841266D01*
X172448734Y-89636165D01*
X172325398Y-89451579D01*
X172168421Y-89294602D01*
X171983835Y-89171266D01*
X171778734Y-89086310D01*
X171561000Y-89043000D01*
X171339000Y-89043000D01*
X171121266Y-89086310D01*
X170916165Y-89171266D01*
X170731579Y-89294602D01*
X170574602Y-89451579D01*
X170451266Y-89636165D01*
X170366310Y-89841266D01*
X170323000Y-90059000D01*
X163758000Y-90059000D01*
X163758000Y-90026990D01*
X163753812Y-90005935D01*
X163753183Y-89984488D01*
X163725956Y-89865893D01*
X163702201Y-89746467D01*
X163693984Y-89726630D01*
X163689184Y-89705721D01*
X163639346Y-89594721D01*
X163592746Y-89482220D01*
X163580818Y-89464368D01*
X163572030Y-89444796D01*
X163501493Y-89345651D01*
X163433842Y-89244404D01*
X163418660Y-89229222D01*
X163406223Y-89211741D01*
X163317695Y-89128257D01*
X163231596Y-89042158D01*
X163213747Y-89030232D01*
X163198136Y-89015510D01*
X163095021Y-88950901D01*
X162993780Y-88883254D01*
X162973942Y-88875037D01*
X162955764Y-88863647D01*
X162842045Y-88820403D01*
X162729533Y-88773799D01*
X162708474Y-88769610D01*
X162688422Y-88761985D01*
X162568442Y-88741756D01*
X162449010Y-88718000D01*
X162427539Y-88718000D01*
X162406383Y-88714433D01*
X162284748Y-88718000D01*
X162162990Y-88718000D01*
X162141935Y-88722188D01*
X162120488Y-88722817D01*
X162001893Y-88750044D01*
X161882467Y-88773799D01*
X161862630Y-88782016D01*
X161841721Y-88786816D01*
X161730727Y-88836652D01*
X161618220Y-88883254D01*
X161600366Y-88895183D01*
X161580797Y-88903970D01*
X161481660Y-88974501D01*
X161380404Y-89042158D01*
X161365221Y-89057341D01*
X161347741Y-89069777D01*
X161264264Y-89158298D01*
X161178158Y-89244404D01*
X161166230Y-89262256D01*
X161151511Y-89277864D01*
X161086910Y-89380965D01*
X161019254Y-89482220D01*
X161011037Y-89502058D01*
X160999647Y-89520236D01*
X160956403Y-89633955D01*
X160909799Y-89746467D01*
X160905610Y-89767526D01*
X160897985Y-89787578D01*
X160877758Y-89907550D01*
X160854000Y-90026990D01*
X160854000Y-90120004D01*
X160812534Y-90721256D01*
X158618756Y-90721256D01*
X158581802Y-90619586D01*
X158565086Y-90592011D01*
X158552746Y-90562220D01*
X158491076Y-90469925D01*
X158433532Y-90375000D01*
X158411757Y-90351215D01*
X158393842Y-90324404D01*
X158315356Y-90245918D01*
X158240394Y-90164038D01*
X158214395Y-90144957D01*
X158191596Y-90122158D01*
X158099300Y-90060487D01*
X158009810Y-89994810D01*
X157980594Y-89981171D01*
X157953780Y-89963254D01*
X157851211Y-89920768D01*
X157750642Y-89873818D01*
X157719329Y-89866141D01*
X157689533Y-89853799D01*
X157580649Y-89832141D01*
X157472851Y-89805712D01*
X157440640Y-89804292D01*
X157409010Y-89798000D01*
X157297973Y-89798000D01*
X157187110Y-89793111D01*
X157155250Y-89798000D01*
X157122990Y-89798000D01*
X157014084Y-89819662D01*
X156904400Y-89836494D01*
X156874102Y-89847506D01*
X156842467Y-89853799D01*
X156739868Y-89896297D01*
X156635588Y-89934200D01*
X156608028Y-89950907D01*
X156578220Y-89963254D01*
X156485879Y-90024954D01*
X156391001Y-90082470D01*
X156367227Y-90104235D01*
X156340404Y-90122158D01*
X156261878Y-90200684D01*
X156232902Y-90227212D01*
X156211523Y-90251039D01*
X156138158Y-90324404D01*
X156116173Y-90357307D01*
X154827634Y-91793388D01*
X154700810Y-91966192D01*
X154579819Y-92225360D01*
X154511713Y-92503151D01*
X154499111Y-92788891D01*
X125089072Y-92788891D01*
X125435376Y-92557499D01*
X125759499Y-92233376D01*
X126014160Y-91852248D01*
X126189574Y-91428761D01*
X126209417Y-91329000D01*
X132477000Y-91329000D01*
X132477000Y-91551000D01*
X132520310Y-91768734D01*
X132605266Y-91973835D01*
X132728602Y-92158421D01*
X132885579Y-92315398D01*
X133070165Y-92438734D01*
X133275266Y-92523690D01*
X133493000Y-92567000D01*
X133715000Y-92567000D01*
X133932734Y-92523690D01*
X134137835Y-92438734D01*
X134322421Y-92315398D01*
X134479398Y-92158421D01*
X134602734Y-91973835D01*
X134687690Y-91768734D01*
X134731000Y-91551000D01*
X134731000Y-91329000D01*
X134687690Y-91111266D01*
X134602734Y-90906165D01*
X134479398Y-90721579D01*
X134322421Y-90564602D01*
X134137835Y-90441266D01*
X133932734Y-90356310D01*
X133715000Y-90313000D01*
X133493000Y-90313000D01*
X133275266Y-90356310D01*
X133070165Y-90441266D01*
X132885579Y-90564602D01*
X132728602Y-90721579D01*
X132605266Y-90906165D01*
X132520310Y-91111266D01*
X132477000Y-91329000D01*
X126209417Y-91329000D01*
X126279000Y-90979189D01*
X126279000Y-90520811D01*
X126189574Y-90071239D01*
X126184505Y-90059000D01*
X143145000Y-90059000D01*
X143145000Y-90281000D01*
X143188310Y-90498734D01*
X143273266Y-90703835D01*
X143396602Y-90888421D01*
X143553579Y-91045398D01*
X143738165Y-91168734D01*
X143943266Y-91253690D01*
X144161000Y-91297000D01*
X144383000Y-91297000D01*
X144600734Y-91253690D01*
X144805835Y-91168734D01*
X144990421Y-91045398D01*
X145147398Y-90888421D01*
X145270734Y-90703835D01*
X145355690Y-90498734D01*
X145399000Y-90281000D01*
X145399000Y-90059000D01*
X146955000Y-90059000D01*
X146955000Y-90281000D01*
X146998310Y-90498734D01*
X147083266Y-90703835D01*
X147206602Y-90888421D01*
X147363579Y-91045398D01*
X147548165Y-91168734D01*
X147753266Y-91253690D01*
X147971000Y-91297000D01*
X148193000Y-91297000D01*
X148410734Y-91253690D01*
X148615835Y-91168734D01*
X148800421Y-91045398D01*
X148957398Y-90888421D01*
X149080734Y-90703835D01*
X149165690Y-90498734D01*
X149209000Y-90281000D01*
X149209000Y-90059000D01*
X149165690Y-89841266D01*
X149080734Y-89636165D01*
X148957398Y-89451579D01*
X148800421Y-89294602D01*
X148615835Y-89171266D01*
X148410734Y-89086310D01*
X148193000Y-89043000D01*
X147971000Y-89043000D01*
X147753266Y-89086310D01*
X147548165Y-89171266D01*
X147363579Y-89294602D01*
X147206602Y-89451579D01*
X147083266Y-89636165D01*
X146998310Y-89841266D01*
X146955000Y-90059000D01*
X145399000Y-90059000D01*
X145355690Y-89841266D01*
X145270734Y-89636165D01*
X145147398Y-89451579D01*
X144990421Y-89294602D01*
X144805835Y-89171266D01*
X144600734Y-89086310D01*
X144383000Y-89043000D01*
X144161000Y-89043000D01*
X143943266Y-89086310D01*
X143738165Y-89171266D01*
X143553579Y-89294602D01*
X143396602Y-89451579D01*
X143273266Y-89636165D01*
X143188310Y-89841266D01*
X143145000Y-90059000D01*
X126184505Y-90059000D01*
X126014160Y-89647752D01*
X125759499Y-89266624D01*
X125435376Y-88942501D01*
X125054248Y-88687840D01*
X124630761Y-88512426D01*
X124181189Y-88423000D01*
X123722811Y-88423000D01*
X123273239Y-88512426D01*
X122849752Y-88687840D01*
X122468624Y-88942501D01*
X122144501Y-89266624D01*
X121889840Y-89647752D01*
X121714426Y-90071239D01*
X121625000Y-90520811D01*
X112903000Y-90520811D01*
X112903000Y-85995000D01*
X128413000Y-85995000D01*
X128413000Y-86217000D01*
X128456310Y-86434734D01*
X128541266Y-86639835D01*
X128664602Y-86824421D01*
X128821579Y-86981398D01*
X129006165Y-87104734D01*
X129211266Y-87189690D01*
X129429000Y-87233000D01*
X129651000Y-87233000D01*
X129868734Y-87189690D01*
X130073835Y-87104734D01*
X130258421Y-86981398D01*
X130415398Y-86824421D01*
X130538734Y-86639835D01*
X130623690Y-86434734D01*
X130667000Y-86217000D01*
X130667000Y-85995000D01*
X130623690Y-85777266D01*
X130538734Y-85572165D01*
X130415398Y-85387579D01*
X130258421Y-85230602D01*
X130073835Y-85107266D01*
X129868734Y-85022310D01*
X129651000Y-84979000D01*
X129429000Y-84979000D01*
X129211266Y-85022310D01*
X129006165Y-85107266D01*
X128821579Y-85230602D01*
X128664602Y-85387579D01*
X128541266Y-85572165D01*
X128456310Y-85777266D01*
X128413000Y-85995000D01*
X112903000Y-85995000D01*
X112903000Y-83840320D01*
X132660738Y-83840320D01*
X132660738Y-86339680D01*
X132667052Y-86403783D01*
X132685750Y-86465423D01*
X132716114Y-86522230D01*
X132756977Y-86572023D01*
X132806770Y-86612886D01*
X132863577Y-86643250D01*
X132925217Y-86661948D01*
X132989320Y-86668262D01*
X135488680Y-86668262D01*
X135552783Y-86661948D01*
X135614423Y-86643250D01*
X135671230Y-86612886D01*
X135721023Y-86572023D01*
X135761886Y-86522230D01*
X135792250Y-86465423D01*
X135810948Y-86403783D01*
X135817262Y-86339680D01*
X135817262Y-84934711D01*
X135837320Y-84934711D01*
X135837320Y-85245289D01*
X135897911Y-85549901D01*
X136016764Y-85836838D01*
X136189313Y-86095075D01*
X136408925Y-86314687D01*
X136667162Y-86487236D01*
X136954099Y-86606089D01*
X137258711Y-86666680D01*
X137569289Y-86666680D01*
X137873901Y-86606089D01*
X138160838Y-86487236D01*
X138419075Y-86314687D01*
X138638687Y-86095075D01*
X138811236Y-85836838D01*
X138930089Y-85549901D01*
X138990680Y-85245289D01*
X138990680Y-84934711D01*
X138930089Y-84630099D01*
X138811236Y-84343162D01*
X138638687Y-84084925D01*
X138419075Y-83865313D01*
X138160838Y-83692764D01*
X137873901Y-83573911D01*
X137569289Y-83513320D01*
X137258711Y-83513320D01*
X136954099Y-83573911D01*
X136667162Y-83692764D01*
X136408925Y-83865313D01*
X136189313Y-84084925D01*
X136016764Y-84343162D01*
X135897911Y-84630099D01*
X135837320Y-84934711D01*
X135817262Y-84934711D01*
X135817262Y-83840320D01*
X135810948Y-83776217D01*
X135792250Y-83714577D01*
X135761886Y-83657770D01*
X135721023Y-83607977D01*
X135671230Y-83567114D01*
X135614423Y-83536750D01*
X135552783Y-83518052D01*
X135488680Y-83511738D01*
X132989320Y-83511738D01*
X132925217Y-83518052D01*
X132863577Y-83536750D01*
X132806770Y-83567114D01*
X132756977Y-83607977D01*
X132716114Y-83657770D01*
X132685750Y-83714577D01*
X132667052Y-83776217D01*
X132660738Y-83840320D01*
X112903000Y-83840320D01*
X112903000Y-77851000D01*
X133090085Y-77851000D01*
X132980213Y-77924414D01*
G04 #@! TA.AperFunction,Conductor*
D23*
G36*
X132980213Y-77924414D02*
G01*
X132788414Y-78116213D01*
X132637718Y-78341746D01*
X132533917Y-78592344D01*
X132481000Y-78858377D01*
X132481000Y-79129623D01*
X132533917Y-79395656D01*
X132637718Y-79646254D01*
X132788414Y-79871787D01*
X132980213Y-80063586D01*
X133205746Y-80214282D01*
X133456344Y-80318083D01*
X133722377Y-80371000D01*
X133993623Y-80371000D01*
X134259656Y-80318083D01*
X134510254Y-80214282D01*
X134735787Y-80063586D01*
X134927586Y-79871787D01*
X135078282Y-79646254D01*
X135182083Y-79395656D01*
X135235000Y-79129623D01*
X135235000Y-78858377D01*
X135182083Y-78592344D01*
X135078282Y-78341746D01*
X134927586Y-78116213D01*
X134735787Y-77924414D01*
X134625915Y-77851000D01*
X136646085Y-77851000D01*
X136536213Y-77924414D01*
X136344414Y-78116213D01*
X136193718Y-78341746D01*
X136089917Y-78592344D01*
X136037000Y-78858377D01*
X136037000Y-79129623D01*
X136089917Y-79395656D01*
X136193718Y-79646254D01*
X136344414Y-79871787D01*
X136536213Y-80063586D01*
X136761746Y-80214282D01*
X137012344Y-80318083D01*
X137278377Y-80371000D01*
X137549623Y-80371000D01*
X137815656Y-80318083D01*
X138066254Y-80214282D01*
X138291787Y-80063586D01*
X138483586Y-79871787D01*
X138634282Y-79646254D01*
X138738083Y-79395656D01*
X138791000Y-79129623D01*
X138791000Y-78858377D01*
X138738083Y-78592344D01*
X138634282Y-78341746D01*
X138483586Y-78116213D01*
X138291787Y-77924414D01*
X138181915Y-77851000D01*
X140202085Y-77851000D01*
X140092213Y-77924414D01*
X139900414Y-78116213D01*
X139749718Y-78341746D01*
X139645917Y-78592344D01*
X139593000Y-78858377D01*
X139593000Y-79129623D01*
X139645917Y-79395656D01*
X139749718Y-79646254D01*
X139900414Y-79871787D01*
X140092213Y-80063586D01*
X140317746Y-80214282D01*
X140568344Y-80318083D01*
X140834377Y-80371000D01*
X141105623Y-80371000D01*
X141371656Y-80318083D01*
X141622254Y-80214282D01*
X141847787Y-80063586D01*
X142039586Y-79871787D01*
X142190282Y-79646254D01*
X142294083Y-79395656D01*
X142347000Y-79129623D01*
X142347000Y-78858377D01*
X142294083Y-78592344D01*
X142190282Y-78341746D01*
X142039586Y-78116213D01*
X141847787Y-77924414D01*
X141737915Y-77851000D01*
X145161000Y-77851000D01*
X145161000Y-85344000D01*
X145163440Y-85368776D01*
X145170667Y-85392601D01*
X145182403Y-85414557D01*
X145198197Y-85433803D01*
X145217443Y-85449597D01*
X145239399Y-85461333D01*
X145263224Y-85468560D01*
X145288000Y-85471000D01*
X173101000Y-85471000D01*
X173101000Y-105029000D01*
X112903000Y-105029000D01*
X112903000Y-98957000D01*
X113155223Y-98957000D01*
X113302426Y-98942502D01*
X113491304Y-98885206D01*
X113665375Y-98792164D01*
X113817949Y-98666949D01*
X113943164Y-98514375D01*
X114036206Y-98340304D01*
X114093502Y-98151426D01*
X114112848Y-97955000D01*
X114093502Y-97758574D01*
X114059050Y-97645000D01*
X114849757Y-97645000D01*
X114866690Y-97816922D01*
X114916838Y-97982237D01*
X114998273Y-98134592D01*
X115107867Y-98268133D01*
X115241408Y-98377727D01*
X115393763Y-98459162D01*
X115559078Y-98509310D01*
X115687921Y-98522000D01*
X116174079Y-98522000D01*
X116302922Y-98509310D01*
X116468237Y-98459162D01*
X116620592Y-98377727D01*
X116754133Y-98268133D01*
X116863727Y-98134592D01*
X116945162Y-97982237D01*
X116995310Y-97816922D01*
X117012243Y-97645000D01*
X116995310Y-97473078D01*
X116945162Y-97307763D01*
X116863727Y-97155408D01*
X116754133Y-97021867D01*
X116620592Y-96912273D01*
X116468237Y-96830838D01*
X116302922Y-96780690D01*
X116174079Y-96768000D01*
X115687921Y-96768000D01*
X115559078Y-96780690D01*
X115393763Y-96830838D01*
X115241408Y-96912273D01*
X115107867Y-97021867D01*
X114998273Y-97155408D01*
X114916838Y-97307763D01*
X114866690Y-97473078D01*
X114849757Y-97645000D01*
X114059050Y-97645000D01*
X114036206Y-97569696D01*
X113943164Y-97395625D01*
X113817949Y-97243051D01*
X113665375Y-97117836D01*
X113491304Y-97024794D01*
X113302426Y-96967498D01*
X113155223Y-96953000D01*
X112903000Y-96953000D01*
X112903000Y-93497000D01*
X113155223Y-93497000D01*
X113302426Y-93482502D01*
X113491304Y-93425206D01*
X113665375Y-93332164D01*
X113817949Y-93206949D01*
X113943164Y-93054375D01*
X114036206Y-92880304D01*
X114059049Y-92805000D01*
X114849757Y-92805000D01*
X114866690Y-92976922D01*
X114916838Y-93142237D01*
X114998273Y-93294592D01*
X115107867Y-93428133D01*
X115241408Y-93537727D01*
X115393763Y-93619162D01*
X115559078Y-93669310D01*
X115687921Y-93682000D01*
X116174079Y-93682000D01*
X116302922Y-93669310D01*
X116468237Y-93619162D01*
X116620592Y-93537727D01*
X116754133Y-93428133D01*
X116863727Y-93294592D01*
X116945162Y-93142237D01*
X116995310Y-92976922D01*
X117012243Y-92805000D01*
X116995310Y-92633078D01*
X116945162Y-92467763D01*
X116863727Y-92315408D01*
X116754133Y-92181867D01*
X116620592Y-92072273D01*
X116468237Y-91990838D01*
X116302922Y-91940690D01*
X116174079Y-91928000D01*
X115687921Y-91928000D01*
X115559078Y-91940690D01*
X115393763Y-91990838D01*
X115241408Y-92072273D01*
X115107867Y-92181867D01*
X114998273Y-92315408D01*
X114916838Y-92467763D01*
X114866690Y-92633078D01*
X114849757Y-92805000D01*
X114059049Y-92805000D01*
X114093502Y-92691426D01*
X114112848Y-92495000D01*
X114093502Y-92298574D01*
X114036206Y-92109696D01*
X113943164Y-91935625D01*
X113817949Y-91783051D01*
X113665375Y-91657836D01*
X113491304Y-91564794D01*
X113302426Y-91507498D01*
X113155223Y-91493000D01*
X112903000Y-91493000D01*
X112903000Y-90520811D01*
X121625000Y-90520811D01*
X121625000Y-90979189D01*
X121714426Y-91428761D01*
X121889840Y-91852248D01*
X122144501Y-92233376D01*
X122468624Y-92557499D01*
X122849752Y-92812160D01*
X123273239Y-92987574D01*
X123335708Y-93000000D01*
X123273239Y-93012426D01*
X122849752Y-93187840D01*
X122468624Y-93442501D01*
X122144501Y-93766624D01*
X121889840Y-94147752D01*
X121714426Y-94571239D01*
X121625000Y-95020811D01*
X121625000Y-95479189D01*
X121714426Y-95928761D01*
X121889840Y-96352248D01*
X122144501Y-96733376D01*
X122468624Y-97057499D01*
X122849752Y-97312160D01*
X123273239Y-97487574D01*
X123335708Y-97500000D01*
X123273239Y-97512426D01*
X122849752Y-97687840D01*
X122468624Y-97942501D01*
X122144501Y-98266624D01*
X121889840Y-98647752D01*
X121714426Y-99071239D01*
X121625000Y-99520811D01*
X121625000Y-99979189D01*
X121714426Y-100428761D01*
X121889840Y-100852248D01*
X122144501Y-101233376D01*
X122468624Y-101557499D01*
X122849752Y-101812160D01*
X123273239Y-101987574D01*
X123722811Y-102077000D01*
X124181189Y-102077000D01*
X124630761Y-101987574D01*
X125054248Y-101812160D01*
X125435376Y-101557499D01*
X125759499Y-101233376D01*
X126014160Y-100852248D01*
X126189574Y-100428761D01*
X126231298Y-100219000D01*
X143145000Y-100219000D01*
X143145000Y-100441000D01*
X143188310Y-100658734D01*
X143273266Y-100863835D01*
X143396602Y-101048421D01*
X143553579Y-101205398D01*
X143738165Y-101328734D01*
X143943266Y-101413690D01*
X144161000Y-101457000D01*
X144383000Y-101457000D01*
X144600734Y-101413690D01*
X144805835Y-101328734D01*
X144990421Y-101205398D01*
X145147398Y-101048421D01*
X145270734Y-100863835D01*
X145355690Y-100658734D01*
X145399000Y-100441000D01*
X145399000Y-100219000D01*
X146955000Y-100219000D01*
X146955000Y-100441000D01*
X146998310Y-100658734D01*
X147083266Y-100863835D01*
X147206602Y-101048421D01*
X147363579Y-101205398D01*
X147548165Y-101328734D01*
X147753266Y-101413690D01*
X147971000Y-101457000D01*
X148193000Y-101457000D01*
X148410734Y-101413690D01*
X148615835Y-101328734D01*
X148800421Y-101205398D01*
X148957398Y-101048421D01*
X149080734Y-100863835D01*
X149165690Y-100658734D01*
X149209000Y-100441000D01*
X149209000Y-100219000D01*
X149206013Y-100203980D01*
X157216500Y-100203980D01*
X157216500Y-100456020D01*
X157265670Y-100703216D01*
X157362122Y-100936071D01*
X157502147Y-101145634D01*
X157680366Y-101323853D01*
X157889929Y-101463878D01*
X158122784Y-101560330D01*
X158369980Y-101609500D01*
X158622020Y-101609500D01*
X158869216Y-101560330D01*
X159102071Y-101463878D01*
X159311634Y-101323853D01*
X159489853Y-101145634D01*
X159629878Y-100936071D01*
X159726330Y-100703216D01*
X159775500Y-100456020D01*
X159775500Y-100203980D01*
X159726330Y-99956784D01*
X159629878Y-99723929D01*
X159489853Y-99514366D01*
X159311634Y-99336147D01*
X159102071Y-99196122D01*
X158869216Y-99099670D01*
X158622020Y-99050500D01*
X158369980Y-99050500D01*
X158122784Y-99099670D01*
X157889929Y-99196122D01*
X157680366Y-99336147D01*
X157502147Y-99514366D01*
X157362122Y-99723929D01*
X157265670Y-99956784D01*
X157216500Y-100203980D01*
X149206013Y-100203980D01*
X149165690Y-100001266D01*
X149080734Y-99796165D01*
X148957398Y-99611579D01*
X148800421Y-99454602D01*
X148615835Y-99331266D01*
X148410734Y-99246310D01*
X148193000Y-99203000D01*
X147971000Y-99203000D01*
X147753266Y-99246310D01*
X147548165Y-99331266D01*
X147363579Y-99454602D01*
X147206602Y-99611579D01*
X147083266Y-99796165D01*
X146998310Y-100001266D01*
X146955000Y-100219000D01*
X145399000Y-100219000D01*
X145355690Y-100001266D01*
X145270734Y-99796165D01*
X145147398Y-99611579D01*
X144990421Y-99454602D01*
X144805835Y-99331266D01*
X144600734Y-99246310D01*
X144383000Y-99203000D01*
X144161000Y-99203000D01*
X143943266Y-99246310D01*
X143738165Y-99331266D01*
X143553579Y-99454602D01*
X143396602Y-99611579D01*
X143273266Y-99796165D01*
X143188310Y-100001266D01*
X143145000Y-100219000D01*
X126231298Y-100219000D01*
X126279000Y-99979189D01*
X126279000Y-99520811D01*
X126189574Y-99071239D01*
X126138941Y-98949000D01*
X132477000Y-98949000D01*
X132477000Y-99171000D01*
X132520310Y-99388734D01*
X132605266Y-99593835D01*
X132728602Y-99778421D01*
X132885579Y-99935398D01*
X133070165Y-100058734D01*
X133275266Y-100143690D01*
X133493000Y-100187000D01*
X133715000Y-100187000D01*
X133932734Y-100143690D01*
X134137835Y-100058734D01*
X134322421Y-99935398D01*
X134479398Y-99778421D01*
X134602734Y-99593835D01*
X134687690Y-99388734D01*
X134731000Y-99171000D01*
X134731000Y-98949000D01*
X134687690Y-98731266D01*
X134602734Y-98526165D01*
X134479398Y-98341579D01*
X134397819Y-98260000D01*
X140095418Y-98260000D01*
X140095418Y-99860000D01*
X140101732Y-99924103D01*
X140120430Y-99985743D01*
X140150794Y-100042550D01*
X140191657Y-100092343D01*
X140241450Y-100133206D01*
X140298257Y-100163570D01*
X140359897Y-100182268D01*
X140424000Y-100188582D01*
X142024000Y-100188582D01*
X142088103Y-100182268D01*
X142149743Y-100163570D01*
X142206550Y-100133206D01*
X142256343Y-100092343D01*
X142297206Y-100042550D01*
X142327570Y-99985743D01*
X142346268Y-99924103D01*
X142352582Y-99860000D01*
X142352582Y-98260000D01*
X142346268Y-98195897D01*
X142327570Y-98134257D01*
X142297206Y-98077450D01*
X142256343Y-98027657D01*
X142206550Y-97986794D01*
X142149743Y-97956430D01*
X142088103Y-97937732D01*
X142024000Y-97931418D01*
X140424000Y-97931418D01*
X140359897Y-97937732D01*
X140298257Y-97956430D01*
X140241450Y-97986794D01*
X140191657Y-98027657D01*
X140150794Y-98077450D01*
X140120430Y-98134257D01*
X140101732Y-98195897D01*
X140095418Y-98260000D01*
X134397819Y-98260000D01*
X134322421Y-98184602D01*
X134137835Y-98061266D01*
X133932734Y-97976310D01*
X133715000Y-97933000D01*
X133493000Y-97933000D01*
X133275266Y-97976310D01*
X133070165Y-98061266D01*
X132885579Y-98184602D01*
X132728602Y-98341579D01*
X132605266Y-98526165D01*
X132520310Y-98731266D01*
X132477000Y-98949000D01*
X126138941Y-98949000D01*
X126014160Y-98647752D01*
X125759499Y-98266624D01*
X125435376Y-97942501D01*
X125054248Y-97687840D01*
X125032907Y-97679000D01*
X129937000Y-97679000D01*
X129937000Y-97901000D01*
X129980310Y-98118734D01*
X130065266Y-98323835D01*
X130188602Y-98508421D01*
X130345579Y-98665398D01*
X130530165Y-98788734D01*
X130735266Y-98873690D01*
X130953000Y-98917000D01*
X131175000Y-98917000D01*
X131392734Y-98873690D01*
X131597835Y-98788734D01*
X131782421Y-98665398D01*
X131939398Y-98508421D01*
X132062734Y-98323835D01*
X132147690Y-98118734D01*
X132191000Y-97901000D01*
X132191000Y-97679000D01*
X132147690Y-97461266D01*
X132062734Y-97256165D01*
X131939398Y-97071579D01*
X131782421Y-96914602D01*
X131597835Y-96791266D01*
X131392734Y-96706310D01*
X131175000Y-96663000D01*
X130953000Y-96663000D01*
X130735266Y-96706310D01*
X130530165Y-96791266D01*
X130345579Y-96914602D01*
X130188602Y-97071579D01*
X130065266Y-97256165D01*
X129980310Y-97461266D01*
X129937000Y-97679000D01*
X125032907Y-97679000D01*
X124630761Y-97512426D01*
X124568292Y-97500000D01*
X124630761Y-97487574D01*
X125054248Y-97312160D01*
X125435376Y-97057499D01*
X125759499Y-96733376D01*
X125976239Y-96409000D01*
X132477000Y-96409000D01*
X132477000Y-96631000D01*
X132520310Y-96848734D01*
X132605266Y-97053835D01*
X132728602Y-97238421D01*
X132885579Y-97395398D01*
X133070165Y-97518734D01*
X133275266Y-97603690D01*
X133493000Y-97647000D01*
X133715000Y-97647000D01*
X133932734Y-97603690D01*
X134137835Y-97518734D01*
X134322421Y-97395398D01*
X134479398Y-97238421D01*
X134602734Y-97053835D01*
X134687690Y-96848734D01*
X134731000Y-96631000D01*
X134731000Y-96409000D01*
X140097000Y-96409000D01*
X140097000Y-96631000D01*
X140140310Y-96848734D01*
X140225266Y-97053835D01*
X140348602Y-97238421D01*
X140505579Y-97395398D01*
X140690165Y-97518734D01*
X140895266Y-97603690D01*
X141113000Y-97647000D01*
X141335000Y-97647000D01*
X141552734Y-97603690D01*
X141757835Y-97518734D01*
X141942421Y-97395398D01*
X142099398Y-97238421D01*
X142222734Y-97053835D01*
X142307690Y-96848734D01*
X142351000Y-96631000D01*
X142351000Y-96409000D01*
X142307690Y-96191266D01*
X142222734Y-95986165D01*
X142099398Y-95801579D01*
X141942421Y-95644602D01*
X141757835Y-95521266D01*
X141552734Y-95436310D01*
X141335000Y-95393000D01*
X141113000Y-95393000D01*
X140895266Y-95436310D01*
X140690165Y-95521266D01*
X140505579Y-95644602D01*
X140348602Y-95801579D01*
X140225266Y-95986165D01*
X140140310Y-96191266D01*
X140097000Y-96409000D01*
X134731000Y-96409000D01*
X134687690Y-96191266D01*
X134602734Y-95986165D01*
X134479398Y-95801579D01*
X134322421Y-95644602D01*
X134137835Y-95521266D01*
X133932734Y-95436310D01*
X133715000Y-95393000D01*
X133493000Y-95393000D01*
X133275266Y-95436310D01*
X133070165Y-95521266D01*
X132885579Y-95644602D01*
X132728602Y-95801579D01*
X132605266Y-95986165D01*
X132520310Y-96191266D01*
X132477000Y-96409000D01*
X125976239Y-96409000D01*
X126014160Y-96352248D01*
X126189574Y-95928761D01*
X126279000Y-95479189D01*
X126279000Y-95131613D01*
X153484000Y-95131613D01*
X153484000Y-95368387D01*
X153530192Y-95600610D01*
X153620801Y-95819361D01*
X153752346Y-96016230D01*
X153919770Y-96183654D01*
X154116639Y-96315199D01*
X154335390Y-96405808D01*
X154567613Y-96452000D01*
X154804387Y-96452000D01*
X155036610Y-96405808D01*
X155255361Y-96315199D01*
X155452230Y-96183654D01*
X155619654Y-96016230D01*
X155751199Y-95819361D01*
X155841808Y-95600610D01*
X155888000Y-95368387D01*
X155888000Y-95131613D01*
X155866080Y-95021411D01*
X157445100Y-95021411D01*
X157445100Y-95478589D01*
X157534291Y-95926982D01*
X157709245Y-96349358D01*
X157963239Y-96729488D01*
X158286512Y-97052761D01*
X158666642Y-97306755D01*
X159089018Y-97481709D01*
X159537411Y-97570900D01*
X159994589Y-97570900D01*
X160442982Y-97481709D01*
X160865358Y-97306755D01*
X161245488Y-97052761D01*
X161568761Y-96729488D01*
X161822755Y-96349358D01*
X161997709Y-95926982D01*
X162086900Y-95478589D01*
X162086900Y-95131613D01*
X163644000Y-95131613D01*
X163644000Y-95368387D01*
X163690192Y-95600610D01*
X163780801Y-95819361D01*
X163912346Y-96016230D01*
X164079770Y-96183654D01*
X164276639Y-96315199D01*
X164495390Y-96405808D01*
X164727613Y-96452000D01*
X164964387Y-96452000D01*
X165196610Y-96405808D01*
X165415361Y-96315199D01*
X165612230Y-96183654D01*
X165779654Y-96016230D01*
X165911199Y-95819361D01*
X166001808Y-95600610D01*
X166048000Y-95368387D01*
X166048000Y-95131613D01*
X166001808Y-94899390D01*
X165911199Y-94680639D01*
X165779654Y-94483770D01*
X165612230Y-94316346D01*
X165415361Y-94184801D01*
X165196610Y-94094192D01*
X164964387Y-94048000D01*
X164727613Y-94048000D01*
X164495390Y-94094192D01*
X164276639Y-94184801D01*
X164079770Y-94316346D01*
X163912346Y-94483770D01*
X163780801Y-94680639D01*
X163690192Y-94899390D01*
X163644000Y-95131613D01*
X162086900Y-95131613D01*
X162086900Y-95021411D01*
X161997709Y-94573018D01*
X161822755Y-94150642D01*
X161568761Y-93770512D01*
X161245488Y-93447239D01*
X160865358Y-93193245D01*
X160442982Y-93018291D01*
X159994589Y-92929100D01*
X159537411Y-92929100D01*
X159089018Y-93018291D01*
X158666642Y-93193245D01*
X158286512Y-93447239D01*
X157963239Y-93770512D01*
X157709245Y-94150642D01*
X157534291Y-94573018D01*
X157445100Y-95021411D01*
X155866080Y-95021411D01*
X155841808Y-94899390D01*
X155751199Y-94680639D01*
X155619654Y-94483770D01*
X155452230Y-94316346D01*
X155255361Y-94184801D01*
X155036610Y-94094192D01*
X154804387Y-94048000D01*
X154567613Y-94048000D01*
X154335390Y-94094192D01*
X154116639Y-94184801D01*
X153919770Y-94316346D01*
X153752346Y-94483770D01*
X153620801Y-94680639D01*
X153530192Y-94899390D01*
X153484000Y-95131613D01*
X126279000Y-95131613D01*
X126279000Y-95020811D01*
X126189574Y-94571239D01*
X126014160Y-94147752D01*
X125827905Y-93869000D01*
X132477000Y-93869000D01*
X132477000Y-94091000D01*
X132520310Y-94308734D01*
X132605266Y-94513835D01*
X132728602Y-94698421D01*
X132885579Y-94855398D01*
X133070165Y-94978734D01*
X133275266Y-95063690D01*
X133493000Y-95107000D01*
X133715000Y-95107000D01*
X133932734Y-95063690D01*
X134137835Y-94978734D01*
X134322421Y-94855398D01*
X134479398Y-94698421D01*
X134602734Y-94513835D01*
X134687690Y-94308734D01*
X134731000Y-94091000D01*
X134731000Y-93869000D01*
X140097000Y-93869000D01*
X140097000Y-94091000D01*
X140140310Y-94308734D01*
X140225266Y-94513835D01*
X140348602Y-94698421D01*
X140505579Y-94855398D01*
X140690165Y-94978734D01*
X140895266Y-95063690D01*
X141113000Y-95107000D01*
X141335000Y-95107000D01*
X141552734Y-95063690D01*
X141757835Y-94978734D01*
X141942421Y-94855398D01*
X142099398Y-94698421D01*
X142222734Y-94513835D01*
X142307690Y-94308734D01*
X142351000Y-94091000D01*
X142351000Y-93869000D01*
X142307690Y-93651266D01*
X142222734Y-93446165D01*
X142099398Y-93261579D01*
X141942421Y-93104602D01*
X141757835Y-92981266D01*
X141552734Y-92896310D01*
X141335000Y-92853000D01*
X141113000Y-92853000D01*
X140895266Y-92896310D01*
X140690165Y-92981266D01*
X140505579Y-93104602D01*
X140348602Y-93261579D01*
X140225266Y-93446165D01*
X140140310Y-93651266D01*
X140097000Y-93869000D01*
X134731000Y-93869000D01*
X134687690Y-93651266D01*
X134602734Y-93446165D01*
X134479398Y-93261579D01*
X134322421Y-93104602D01*
X134137835Y-92981266D01*
X133932734Y-92896310D01*
X133715000Y-92853000D01*
X133493000Y-92853000D01*
X133275266Y-92896310D01*
X133070165Y-92981266D01*
X132885579Y-93104602D01*
X132728602Y-93261579D01*
X132605266Y-93446165D01*
X132520310Y-93651266D01*
X132477000Y-93869000D01*
X125827905Y-93869000D01*
X125759499Y-93766624D01*
X125435376Y-93442501D01*
X125054248Y-93187840D01*
X124630761Y-93012426D01*
X124568292Y-93000000D01*
X124630761Y-92987574D01*
X125054248Y-92812160D01*
X125089072Y-92788891D01*
X154499111Y-92788891D01*
X154542495Y-93071601D01*
X154640200Y-93340414D01*
X154788470Y-93585000D01*
X154981608Y-93795962D01*
X155212192Y-93965190D01*
X155471360Y-94086181D01*
X155749151Y-94154287D01*
X156034891Y-94166889D01*
X156317601Y-94123505D01*
X156586414Y-94025800D01*
X156831000Y-93877530D01*
X156989099Y-93732788D01*
X158320518Y-92248920D01*
X158393842Y-92175596D01*
X158455502Y-92083316D01*
X158521192Y-91993809D01*
X158534835Y-91964586D01*
X158552746Y-91937780D01*
X158595220Y-91835240D01*
X158642184Y-91734641D01*
X158649863Y-91703319D01*
X158662201Y-91673533D01*
X158683852Y-91564687D01*
X158710290Y-91456850D01*
X158711711Y-91424627D01*
X158718000Y-91393010D01*
X158718000Y-91282018D01*
X158722891Y-91171109D01*
X158718000Y-91139237D01*
X158718000Y-91106990D01*
X158696344Y-90998118D01*
X158679507Y-90888399D01*
X158668492Y-90858093D01*
X158662201Y-90826467D01*
X158619721Y-90723912D01*
X158618756Y-90721256D01*
X160812534Y-90721256D01*
X160818818Y-90935512D01*
X160882816Y-91214279D01*
X160999970Y-91475203D01*
X161165777Y-91708259D01*
X161373864Y-91904489D01*
X161616236Y-92056353D01*
X161883578Y-92158015D01*
X162165617Y-92205567D01*
X162451512Y-92197182D01*
X162730279Y-92133184D01*
X162991203Y-92016030D01*
X163224259Y-91850223D01*
X163420489Y-91642136D01*
X163572353Y-91399764D01*
X163674015Y-91132422D01*
X163709651Y-90921056D01*
X163748181Y-90362373D01*
X163758000Y-90313010D01*
X163758000Y-90220002D01*
X163759466Y-90198745D01*
X163758000Y-90148753D01*
X163758000Y-90059000D01*
X170323000Y-90059000D01*
X170323000Y-90281000D01*
X170366310Y-90498734D01*
X170451266Y-90703835D01*
X170574602Y-90888421D01*
X170731579Y-91045398D01*
X170916165Y-91168734D01*
X171121266Y-91253690D01*
X171339000Y-91297000D01*
X171561000Y-91297000D01*
X171778734Y-91253690D01*
X171983835Y-91168734D01*
X172168421Y-91045398D01*
X172325398Y-90888421D01*
X172448734Y-90703835D01*
X172533690Y-90498734D01*
X172577000Y-90281000D01*
X172577000Y-90059000D01*
X172533690Y-89841266D01*
X172448734Y-89636165D01*
X172325398Y-89451579D01*
X172168421Y-89294602D01*
X171983835Y-89171266D01*
X171778734Y-89086310D01*
X171561000Y-89043000D01*
X171339000Y-89043000D01*
X171121266Y-89086310D01*
X170916165Y-89171266D01*
X170731579Y-89294602D01*
X170574602Y-89451579D01*
X170451266Y-89636165D01*
X170366310Y-89841266D01*
X170323000Y-90059000D01*
X163758000Y-90059000D01*
X163758000Y-90026990D01*
X163753812Y-90005935D01*
X163753183Y-89984488D01*
X163725956Y-89865893D01*
X163702201Y-89746467D01*
X163693984Y-89726630D01*
X163689184Y-89705721D01*
X163639346Y-89594721D01*
X163592746Y-89482220D01*
X163580818Y-89464368D01*
X163572030Y-89444796D01*
X163501493Y-89345651D01*
X163433842Y-89244404D01*
X163418660Y-89229222D01*
X163406223Y-89211741D01*
X163317695Y-89128257D01*
X163231596Y-89042158D01*
X163213747Y-89030232D01*
X163198136Y-89015510D01*
X163095021Y-88950901D01*
X162993780Y-88883254D01*
X162973942Y-88875037D01*
X162955764Y-88863647D01*
X162842045Y-88820403D01*
X162729533Y-88773799D01*
X162708474Y-88769610D01*
X162688422Y-88761985D01*
X162568442Y-88741756D01*
X162449010Y-88718000D01*
X162427539Y-88718000D01*
X162406383Y-88714433D01*
X162284748Y-88718000D01*
X162162990Y-88718000D01*
X162141935Y-88722188D01*
X162120488Y-88722817D01*
X162001893Y-88750044D01*
X161882467Y-88773799D01*
X161862630Y-88782016D01*
X161841721Y-88786816D01*
X161730727Y-88836652D01*
X161618220Y-88883254D01*
X161600366Y-88895183D01*
X161580797Y-88903970D01*
X161481660Y-88974501D01*
X161380404Y-89042158D01*
X161365221Y-89057341D01*
X161347741Y-89069777D01*
X161264264Y-89158298D01*
X161178158Y-89244404D01*
X161166230Y-89262256D01*
X161151511Y-89277864D01*
X161086910Y-89380965D01*
X161019254Y-89482220D01*
X161011037Y-89502058D01*
X160999647Y-89520236D01*
X160956403Y-89633955D01*
X160909799Y-89746467D01*
X160905610Y-89767526D01*
X160897985Y-89787578D01*
X160877758Y-89907550D01*
X160854000Y-90026990D01*
X160854000Y-90120004D01*
X160812534Y-90721256D01*
X158618756Y-90721256D01*
X158581802Y-90619586D01*
X158565086Y-90592011D01*
X158552746Y-90562220D01*
X158491076Y-90469925D01*
X158433532Y-90375000D01*
X158411757Y-90351215D01*
X158393842Y-90324404D01*
X158315356Y-90245918D01*
X158240394Y-90164038D01*
X158214395Y-90144957D01*
X158191596Y-90122158D01*
X158099300Y-90060487D01*
X158009810Y-89994810D01*
X157980594Y-89981171D01*
X157953780Y-89963254D01*
X157851211Y-89920768D01*
X157750642Y-89873818D01*
X157719329Y-89866141D01*
X157689533Y-89853799D01*
X157580649Y-89832141D01*
X157472851Y-89805712D01*
X157440640Y-89804292D01*
X157409010Y-89798000D01*
X157297973Y-89798000D01*
X157187110Y-89793111D01*
X157155250Y-89798000D01*
X157122990Y-89798000D01*
X157014084Y-89819662D01*
X156904400Y-89836494D01*
X156874102Y-89847506D01*
X156842467Y-89853799D01*
X156739868Y-89896297D01*
X156635588Y-89934200D01*
X156608028Y-89950907D01*
X156578220Y-89963254D01*
X156485879Y-90024954D01*
X156391001Y-90082470D01*
X156367227Y-90104235D01*
X156340404Y-90122158D01*
X156261878Y-90200684D01*
X156232902Y-90227212D01*
X156211523Y-90251039D01*
X156138158Y-90324404D01*
X156116173Y-90357307D01*
X154827634Y-91793388D01*
X154700810Y-91966192D01*
X154579819Y-92225360D01*
X154511713Y-92503151D01*
X154499111Y-92788891D01*
X125089072Y-92788891D01*
X125435376Y-92557499D01*
X125759499Y-92233376D01*
X126014160Y-91852248D01*
X126189574Y-91428761D01*
X126209417Y-91329000D01*
X132477000Y-91329000D01*
X132477000Y-91551000D01*
X132520310Y-91768734D01*
X132605266Y-91973835D01*
X132728602Y-92158421D01*
X132885579Y-92315398D01*
X133070165Y-92438734D01*
X133275266Y-92523690D01*
X133493000Y-92567000D01*
X133715000Y-92567000D01*
X133932734Y-92523690D01*
X134137835Y-92438734D01*
X134322421Y-92315398D01*
X134479398Y-92158421D01*
X134602734Y-91973835D01*
X134687690Y-91768734D01*
X134731000Y-91551000D01*
X134731000Y-91329000D01*
X134687690Y-91111266D01*
X134602734Y-90906165D01*
X134479398Y-90721579D01*
X134322421Y-90564602D01*
X134137835Y-90441266D01*
X133932734Y-90356310D01*
X133715000Y-90313000D01*
X133493000Y-90313000D01*
X133275266Y-90356310D01*
X133070165Y-90441266D01*
X132885579Y-90564602D01*
X132728602Y-90721579D01*
X132605266Y-90906165D01*
X132520310Y-91111266D01*
X132477000Y-91329000D01*
X126209417Y-91329000D01*
X126279000Y-90979189D01*
X126279000Y-90520811D01*
X126189574Y-90071239D01*
X126184505Y-90059000D01*
X143145000Y-90059000D01*
X143145000Y-90281000D01*
X143188310Y-90498734D01*
X143273266Y-90703835D01*
X143396602Y-90888421D01*
X143553579Y-91045398D01*
X143738165Y-91168734D01*
X143943266Y-91253690D01*
X144161000Y-91297000D01*
X144383000Y-91297000D01*
X144600734Y-91253690D01*
X144805835Y-91168734D01*
X144990421Y-91045398D01*
X145147398Y-90888421D01*
X145270734Y-90703835D01*
X145355690Y-90498734D01*
X145399000Y-90281000D01*
X145399000Y-90059000D01*
X146955000Y-90059000D01*
X146955000Y-90281000D01*
X146998310Y-90498734D01*
X147083266Y-90703835D01*
X147206602Y-90888421D01*
X147363579Y-91045398D01*
X147548165Y-91168734D01*
X147753266Y-91253690D01*
X147971000Y-91297000D01*
X148193000Y-91297000D01*
X148410734Y-91253690D01*
X148615835Y-91168734D01*
X148800421Y-91045398D01*
X148957398Y-90888421D01*
X149080734Y-90703835D01*
X149165690Y-90498734D01*
X149209000Y-90281000D01*
X149209000Y-90059000D01*
X149165690Y-89841266D01*
X149080734Y-89636165D01*
X148957398Y-89451579D01*
X148800421Y-89294602D01*
X148615835Y-89171266D01*
X148410734Y-89086310D01*
X148193000Y-89043000D01*
X147971000Y-89043000D01*
X147753266Y-89086310D01*
X147548165Y-89171266D01*
X147363579Y-89294602D01*
X147206602Y-89451579D01*
X147083266Y-89636165D01*
X146998310Y-89841266D01*
X146955000Y-90059000D01*
X145399000Y-90059000D01*
X145355690Y-89841266D01*
X145270734Y-89636165D01*
X145147398Y-89451579D01*
X144990421Y-89294602D01*
X144805835Y-89171266D01*
X144600734Y-89086310D01*
X144383000Y-89043000D01*
X144161000Y-89043000D01*
X143943266Y-89086310D01*
X143738165Y-89171266D01*
X143553579Y-89294602D01*
X143396602Y-89451579D01*
X143273266Y-89636165D01*
X143188310Y-89841266D01*
X143145000Y-90059000D01*
X126184505Y-90059000D01*
X126014160Y-89647752D01*
X125759499Y-89266624D01*
X125435376Y-88942501D01*
X125054248Y-88687840D01*
X124630761Y-88512426D01*
X124181189Y-88423000D01*
X123722811Y-88423000D01*
X123273239Y-88512426D01*
X122849752Y-88687840D01*
X122468624Y-88942501D01*
X122144501Y-89266624D01*
X121889840Y-89647752D01*
X121714426Y-90071239D01*
X121625000Y-90520811D01*
X112903000Y-90520811D01*
X112903000Y-85995000D01*
X128413000Y-85995000D01*
X128413000Y-86217000D01*
X128456310Y-86434734D01*
X128541266Y-86639835D01*
X128664602Y-86824421D01*
X128821579Y-86981398D01*
X129006165Y-87104734D01*
X129211266Y-87189690D01*
X129429000Y-87233000D01*
X129651000Y-87233000D01*
X129868734Y-87189690D01*
X130073835Y-87104734D01*
X130258421Y-86981398D01*
X130415398Y-86824421D01*
X130538734Y-86639835D01*
X130623690Y-86434734D01*
X130667000Y-86217000D01*
X130667000Y-85995000D01*
X130623690Y-85777266D01*
X130538734Y-85572165D01*
X130415398Y-85387579D01*
X130258421Y-85230602D01*
X130073835Y-85107266D01*
X129868734Y-85022310D01*
X129651000Y-84979000D01*
X129429000Y-84979000D01*
X129211266Y-85022310D01*
X129006165Y-85107266D01*
X128821579Y-85230602D01*
X128664602Y-85387579D01*
X128541266Y-85572165D01*
X128456310Y-85777266D01*
X128413000Y-85995000D01*
X112903000Y-85995000D01*
X112903000Y-83840320D01*
X132660738Y-83840320D01*
X132660738Y-86339680D01*
X132667052Y-86403783D01*
X132685750Y-86465423D01*
X132716114Y-86522230D01*
X132756977Y-86572023D01*
X132806770Y-86612886D01*
X132863577Y-86643250D01*
X132925217Y-86661948D01*
X132989320Y-86668262D01*
X135488680Y-86668262D01*
X135552783Y-86661948D01*
X135614423Y-86643250D01*
X135671230Y-86612886D01*
X135721023Y-86572023D01*
X135761886Y-86522230D01*
X135792250Y-86465423D01*
X135810948Y-86403783D01*
X135817262Y-86339680D01*
X135817262Y-84934711D01*
X135837320Y-84934711D01*
X135837320Y-85245289D01*
X135897911Y-85549901D01*
X136016764Y-85836838D01*
X136189313Y-86095075D01*
X136408925Y-86314687D01*
X136667162Y-86487236D01*
X136954099Y-86606089D01*
X137258711Y-86666680D01*
X137569289Y-86666680D01*
X137873901Y-86606089D01*
X138160838Y-86487236D01*
X138419075Y-86314687D01*
X138638687Y-86095075D01*
X138811236Y-85836838D01*
X138930089Y-85549901D01*
X138990680Y-85245289D01*
X138990680Y-84934711D01*
X138930089Y-84630099D01*
X138811236Y-84343162D01*
X138638687Y-84084925D01*
X138419075Y-83865313D01*
X138160838Y-83692764D01*
X137873901Y-83573911D01*
X137569289Y-83513320D01*
X137258711Y-83513320D01*
X136954099Y-83573911D01*
X136667162Y-83692764D01*
X136408925Y-83865313D01*
X136189313Y-84084925D01*
X136016764Y-84343162D01*
X135897911Y-84630099D01*
X135837320Y-84934711D01*
X135817262Y-84934711D01*
X135817262Y-83840320D01*
X135810948Y-83776217D01*
X135792250Y-83714577D01*
X135761886Y-83657770D01*
X135721023Y-83607977D01*
X135671230Y-83567114D01*
X135614423Y-83536750D01*
X135552783Y-83518052D01*
X135488680Y-83511738D01*
X132989320Y-83511738D01*
X132925217Y-83518052D01*
X132863577Y-83536750D01*
X132806770Y-83567114D01*
X132756977Y-83607977D01*
X132716114Y-83657770D01*
X132685750Y-83714577D01*
X132667052Y-83776217D01*
X132660738Y-83840320D01*
X112903000Y-83840320D01*
X112903000Y-77851000D01*
X133090085Y-77851000D01*
X132980213Y-77924414D01*
G37*
G04 #@! TD.AperFunction*
M02*
