G04 #@! TF.GenerationSoftware,KiCad,Pcbnew,(5.1.8-0-10_14)*
G04 #@! TF.CreationDate,2020-12-18T18:08:01+11:00*
G04 #@! TF.ProjectId,WS2812B_Controller_Board,57533238-3132-4425-9f43-6f6e74726f6c,rev?*
G04 #@! TF.SameCoordinates,Original*
G04 #@! TF.FileFunction,Soldermask,Top*
G04 #@! TF.FilePolarity,Negative*
%FSLAX46Y46*%
G04 Gerber Fmt 4.6, Leading zero omitted, Abs format (unit mm)*
G04 Created by KiCad (PCBNEW (5.1.8-0-10_14)) date 2020-12-18 18:08:01*
%MOMM*%
%LPD*%
G01*
G04 APERTURE LIST*
%ADD10C,2.202000*%
%ADD11C,1.702000*%
%ADD12O,1.702000X1.702000*%
%ADD13C,4.102000*%
%ADD14C,1.852000*%
%ADD15C,4.089800*%
%ADD16C,2.601360*%
%ADD17O,1.802000X1.452000*%
%ADD18O,1.602000X1.202000*%
%ADD19C,0.100000*%
G04 APERTURE END LIST*
D10*
X133858000Y-78994000D03*
X137414000Y-78994000D03*
X140970000Y-78994000D03*
D11*
X171450000Y-90170000D03*
D12*
X171450000Y-100330000D03*
X148082000Y-100330000D03*
D11*
X148082000Y-90170000D03*
G36*
G01*
X142075000Y-98260000D02*
X142075000Y-99860000D01*
G75*
G02*
X142024000Y-99911000I-51000J0D01*
G01*
X140424000Y-99911000D01*
G75*
G02*
X140373000Y-99860000I0J51000D01*
G01*
X140373000Y-98260000D01*
G75*
G02*
X140424000Y-98209000I51000J0D01*
G01*
X142024000Y-98209000D01*
G75*
G02*
X142075000Y-98260000I0J-51000D01*
G01*
G37*
D12*
X133604000Y-91440000D03*
X141224000Y-96520000D03*
X133604000Y-93980000D03*
X141224000Y-93980000D03*
X133604000Y-96520000D03*
X141224000Y-91440000D03*
X133604000Y-99060000D03*
D13*
X123952000Y-99750000D03*
X123952000Y-95250000D03*
X123952000Y-90750000D03*
D12*
X144272000Y-100330000D03*
D11*
X144272000Y-90170000D03*
D14*
X164846000Y-95250000D03*
X154686000Y-95250000D03*
D15*
X159766000Y-95250000D03*
G36*
G01*
X132938320Y-86339680D02*
X132938320Y-83840320D01*
G75*
G02*
X132989320Y-83789320I51000J0D01*
G01*
X135488680Y-83789320D01*
G75*
G02*
X135539680Y-83840320I0J-51000D01*
G01*
X135539680Y-86339680D01*
G75*
G02*
X135488680Y-86390680I-51000J0D01*
G01*
X132989320Y-86390680D01*
G75*
G02*
X132938320Y-86339680I0J51000D01*
G01*
G37*
D16*
X137414000Y-85090000D03*
X140589000Y-85090000D03*
G36*
G01*
X111360000Y-96900000D02*
X111360000Y-95470000D01*
G75*
G02*
X111411000Y-95419000I51000J0D01*
G01*
X113911000Y-95419000D01*
G75*
G02*
X113962000Y-95470000I0J-51000D01*
G01*
X113962000Y-96900000D01*
G75*
G02*
X113911000Y-96951000I-51000J0D01*
G01*
X111411000Y-96951000D01*
G75*
G02*
X111360000Y-96900000I0J51000D01*
G01*
G37*
G36*
G01*
X111360000Y-94980000D02*
X111360000Y-93550000D01*
G75*
G02*
X111411000Y-93499000I51000J0D01*
G01*
X113911000Y-93499000D01*
G75*
G02*
X113962000Y-93550000I0J-51000D01*
G01*
X113962000Y-94980000D01*
G75*
G02*
X113911000Y-95031000I-51000J0D01*
G01*
X111411000Y-95031000D01*
G75*
G02*
X111360000Y-94980000I0J51000D01*
G01*
G37*
D17*
X112931000Y-97955000D03*
X112931000Y-92495000D03*
D18*
X115931000Y-97645000D03*
X115931000Y-92805000D03*
G36*
G01*
X114935000Y-96725000D02*
X114935000Y-96325000D01*
G75*
G02*
X114986000Y-96274000I51000J0D01*
G01*
X116636000Y-96274000D01*
G75*
G02*
X116687000Y-96325000I0J-51000D01*
G01*
X116687000Y-96725000D01*
G75*
G02*
X116636000Y-96776000I-51000J0D01*
G01*
X114986000Y-96776000D01*
G75*
G02*
X114935000Y-96725000I0J51000D01*
G01*
G37*
G36*
G01*
X114935000Y-96075000D02*
X114935000Y-95675000D01*
G75*
G02*
X114986000Y-95624000I51000J0D01*
G01*
X116636000Y-95624000D01*
G75*
G02*
X116687000Y-95675000I0J-51000D01*
G01*
X116687000Y-96075000D01*
G75*
G02*
X116636000Y-96126000I-51000J0D01*
G01*
X114986000Y-96126000D01*
G75*
G02*
X114935000Y-96075000I0J51000D01*
G01*
G37*
G36*
G01*
X114935000Y-95425000D02*
X114935000Y-95025000D01*
G75*
G02*
X114986000Y-94974000I51000J0D01*
G01*
X116636000Y-94974000D01*
G75*
G02*
X116687000Y-95025000I0J-51000D01*
G01*
X116687000Y-95425000D01*
G75*
G02*
X116636000Y-95476000I-51000J0D01*
G01*
X114986000Y-95476000D01*
G75*
G02*
X114935000Y-95425000I0J51000D01*
G01*
G37*
G36*
G01*
X114935000Y-94775000D02*
X114935000Y-94375000D01*
G75*
G02*
X114986000Y-94324000I51000J0D01*
G01*
X116636000Y-94324000D01*
G75*
G02*
X116687000Y-94375000I0J-51000D01*
G01*
X116687000Y-94775000D01*
G75*
G02*
X116636000Y-94826000I-51000J0D01*
G01*
X114986000Y-94826000D01*
G75*
G02*
X114935000Y-94775000I0J51000D01*
G01*
G37*
G36*
G01*
X114935000Y-94125000D02*
X114935000Y-93725000D01*
G75*
G02*
X114986000Y-93674000I51000J0D01*
G01*
X116636000Y-93674000D01*
G75*
G02*
X116687000Y-93725000I0J-51000D01*
G01*
X116687000Y-94125000D01*
G75*
G02*
X116636000Y-94176000I-51000J0D01*
G01*
X114986000Y-94176000D01*
G75*
G02*
X114935000Y-94125000I0J51000D01*
G01*
G37*
G36*
G01*
X115181000Y-97074000D02*
X116681000Y-97074000D01*
G75*
G02*
X116732000Y-97125000I0J-51000D01*
G01*
X116732000Y-99125000D01*
G75*
G02*
X116681000Y-99176000I-51000J0D01*
G01*
X115181000Y-99176000D01*
G75*
G02*
X115130000Y-99125000I0J51000D01*
G01*
X115130000Y-97125000D01*
G75*
G02*
X115181000Y-97074000I51000J0D01*
G01*
G37*
G36*
G01*
X115161000Y-91324000D02*
X116661000Y-91324000D01*
G75*
G02*
X116712000Y-91375000I0J-51000D01*
G01*
X116712000Y-93375000D01*
G75*
G02*
X116661000Y-93426000I-51000J0D01*
G01*
X115161000Y-93426000D01*
G75*
G02*
X115110000Y-93375000I0J51000D01*
G01*
X115110000Y-91375000D01*
G75*
G02*
X115161000Y-91324000I51000J0D01*
G01*
G37*
G36*
G01*
X114260999Y-97261500D02*
X114961001Y-97261500D01*
G75*
G02*
X115012000Y-97312499I0J-50999D01*
G01*
X115012000Y-99137501D01*
G75*
G02*
X114961001Y-99188500I-50999J0D01*
G01*
X114260999Y-99188500D01*
G75*
G02*
X114210000Y-99137501I0J50999D01*
G01*
X114210000Y-97312499D01*
G75*
G02*
X114260999Y-97261500I50999J0D01*
G01*
G37*
G36*
G01*
X114260999Y-91311500D02*
X114961001Y-91311500D01*
G75*
G02*
X115012000Y-91362499I0J-50999D01*
G01*
X115012000Y-93187501D01*
G75*
G02*
X114961001Y-93238500I-50999J0D01*
G01*
X114260999Y-93238500D01*
G75*
G02*
X114210000Y-93187501I0J50999D01*
G01*
X114210000Y-91362499D01*
G75*
G02*
X114260999Y-91311500I50999J0D01*
G01*
G37*
G36*
G01*
X112861000Y-91769000D02*
X114861000Y-91769000D01*
G75*
G02*
X114912000Y-91820000I0J-51000D01*
G01*
X114912000Y-93170000D01*
G75*
G02*
X114861000Y-93221000I-51000J0D01*
G01*
X112861000Y-93221000D01*
G75*
G02*
X112810000Y-93170000I0J51000D01*
G01*
X112810000Y-91820000D01*
G75*
G02*
X112861000Y-91769000I51000J0D01*
G01*
G37*
G36*
G01*
X112861000Y-97249000D02*
X114861000Y-97249000D01*
G75*
G02*
X114912000Y-97300000I0J-51000D01*
G01*
X114912000Y-98650000D01*
G75*
G02*
X114861000Y-98701000I-51000J0D01*
G01*
X112861000Y-98701000D01*
G75*
G02*
X112810000Y-98650000I0J51000D01*
G01*
X112810000Y-97300000D01*
G75*
G02*
X112861000Y-97249000I51000J0D01*
G01*
G37*
D11*
X129540000Y-84106000D03*
X129540000Y-86106000D03*
X131064000Y-92790000D03*
X131064000Y-97790000D03*
D19*
G36*
X115131165Y-97122375D02*
G01*
X115132000Y-97124001D01*
X115132000Y-99174000D01*
X115136999Y-99174000D01*
X115138731Y-99175000D01*
X115138731Y-99177000D01*
X115137195Y-99177990D01*
X115113008Y-99180372D01*
X115089933Y-99187372D01*
X115084522Y-99190264D01*
X115083579Y-99190500D01*
X115012000Y-99190500D01*
X115010268Y-99189500D01*
X115010000Y-99188500D01*
X115010000Y-97263500D01*
X114912000Y-97263500D01*
X114910268Y-97262500D01*
X114910000Y-97261500D01*
X114910000Y-97249000D01*
X114911000Y-97247268D01*
X114912000Y-97247000D01*
X115004907Y-97247000D01*
X115028992Y-97244628D01*
X115052067Y-97237628D01*
X115073331Y-97226263D01*
X115091968Y-97210968D01*
X115107263Y-97192331D01*
X115118628Y-97171067D01*
X115125628Y-97147992D01*
X115128010Y-97123805D01*
X115129175Y-97122179D01*
X115131165Y-97122375D01*
G37*
G36*
X116688732Y-96125000D02*
G01*
X116689000Y-96126000D01*
X116689000Y-96274000D01*
X116688000Y-96275732D01*
X116687000Y-96276000D01*
X114935000Y-96276000D01*
X114933268Y-96275000D01*
X114933000Y-96274000D01*
X114933000Y-96126000D01*
X114934000Y-96124268D01*
X114935000Y-96124000D01*
X116687000Y-96124000D01*
X116688732Y-96125000D01*
G37*
G36*
X116688732Y-95475000D02*
G01*
X116689000Y-95476000D01*
X116689000Y-95624000D01*
X116688000Y-95625732D01*
X116687000Y-95626000D01*
X114935000Y-95626000D01*
X114933268Y-95625000D01*
X114933000Y-95624000D01*
X114933000Y-95476000D01*
X114934000Y-95474268D01*
X114935000Y-95474000D01*
X116687000Y-95474000D01*
X116688732Y-95475000D01*
G37*
G36*
X116688732Y-94825000D02*
G01*
X116689000Y-94826000D01*
X116689000Y-94974000D01*
X116688000Y-94975732D01*
X116687000Y-94976000D01*
X114935000Y-94976000D01*
X114933268Y-94975000D01*
X114933000Y-94974000D01*
X114933000Y-94826000D01*
X114934000Y-94824268D01*
X114935000Y-94824000D01*
X116687000Y-94824000D01*
X116688732Y-94825000D01*
G37*
G36*
X116688732Y-94175000D02*
G01*
X116689000Y-94176000D01*
X116689000Y-94324000D01*
X116688000Y-94325732D01*
X116687000Y-94326000D01*
X114935000Y-94326000D01*
X114933268Y-94325000D01*
X114933000Y-94324000D01*
X114933000Y-94176000D01*
X114934000Y-94174268D01*
X114935000Y-94174000D01*
X116687000Y-94174000D01*
X116688732Y-94175000D01*
G37*
G36*
X116713732Y-93425000D02*
G01*
X116714000Y-93426000D01*
X116714000Y-93476759D01*
X116713546Y-93478028D01*
X116709737Y-93482669D01*
X116698372Y-93503933D01*
X116691372Y-93527008D01*
X116689000Y-93551093D01*
X116689000Y-93674000D01*
X116688000Y-93675732D01*
X116687000Y-93676000D01*
X114985001Y-93676000D01*
X114983269Y-93675000D01*
X114983269Y-93673000D01*
X114984805Y-93672010D01*
X115008992Y-93669628D01*
X115032067Y-93662628D01*
X115053331Y-93651263D01*
X115071968Y-93635968D01*
X115087263Y-93617331D01*
X115098628Y-93596067D01*
X115105628Y-93572992D01*
X115108000Y-93548907D01*
X115108000Y-93426000D01*
X115109000Y-93424268D01*
X115110000Y-93424000D01*
X116712000Y-93424000D01*
X116713732Y-93425000D01*
G37*
G36*
X115084522Y-91309736D02*
G01*
X115089933Y-91312628D01*
X115113008Y-91319628D01*
X115137195Y-91322010D01*
X115138821Y-91323175D01*
X115138625Y-91325165D01*
X115136999Y-91326000D01*
X115112000Y-91326000D01*
X115112000Y-93363499D01*
X115111000Y-93365231D01*
X115109000Y-93365231D01*
X115108010Y-93363695D01*
X115105628Y-93339508D01*
X115098628Y-93316433D01*
X115087263Y-93295169D01*
X115071968Y-93276532D01*
X115053331Y-93261237D01*
X115032067Y-93249872D01*
X115008992Y-93242872D01*
X114984805Y-93240490D01*
X114983179Y-93239325D01*
X114983375Y-93237335D01*
X114985001Y-93236500D01*
X115010000Y-93236500D01*
X115010000Y-91311500D01*
X115011000Y-91309768D01*
X115012000Y-91309500D01*
X115083579Y-91309500D01*
X115084522Y-91309736D01*
G37*
M02*
