M48
; DRILL file {KiCad (5.1.8-0-10_14)} date Friday, December 18, 2020 at 06:08:03 PM
; FORMAT={-:-/ absolute / inch / decimal}
; #@! TF.CreationDate,2020-12-18T18:08:03+11:00
; #@! TF.GenerationSoftware,Kicad,Pcbnew,(5.1.8-0-10_14)
FMAT,2
INCH
T1C0.0236
T2C0.0256
T3C0.0276
T4C0.0315
T5C0.0394
T6C0.0409
T7C0.0579
T8C0.0984
T9C0.0689
T10C0.0827
T11C0.1570
%
G90
G05
T1
X4.65Y-3.77
X4.65Y-3.88
X4.65Y-3.99
T4
X5.1Y-3.3113
X5.1Y-3.39
X5.83Y-3.55
X5.83Y-3.95
X5.26Y-3.6
X5.26Y-3.7
X5.26Y-3.8
X5.26Y-3.9
X5.56Y-3.6
X5.56Y-3.7
X5.56Y-3.8
X5.56Y-3.9
X5.68Y-3.55
X5.68Y-3.95
X5.16Y-3.6531
X5.16Y-3.85
X6.75Y-3.55
X6.75Y-3.95
T5
X5.285Y-3.35
X5.41Y-3.35
X5.535Y-3.35
T6
X6.24Y-3.95
X6.34Y-3.95
T7
X6.14Y-3.65
X6.1916Y-3.5925
X6.3884Y-3.5728
X6.39Y-3.55
T8
X4.88Y-3.5728
X4.88Y-3.75
X4.88Y-3.9272
T9
X6.09Y-3.75
X6.49Y-3.75
T10
X5.41Y-3.11
X5.55Y-3.11
X5.27Y-3.11
T11
X6.29Y-3.75
T2
G00X4.5563Y-3.6537
M15
G01X4.5721Y-3.6537
M16
G05
G00X4.5563Y-3.8443
M15
G01X4.5721Y-3.8443
M16
G05
T3
G00X4.4363Y-3.6415
M15
G01X4.4559Y-3.6415
M16
G05
G00X4.4363Y-3.8565
M15
G01X4.4559Y-3.8565
M16
G05
T0
M30
